<svg width="600" height="600" viewBox="0 0 600 600" fill="none" xmlns="http://www.w3.org/2000/svg">
<g clip-path="url(#clip0_17010_192207)">
<rect width="600" height="600" rx="300" fill="#6BA084"/>
<path d="M147.122 438H144.167C144.167 438 125.496 440.277 103.209 442.421C80.7039 444.585 61.3694 447.841 69.4486 452.826C91.1608 466.576 232.342 466.443 283.974 482.486C293.093 485.3 299.069 488.141 306.029 492.263C307.136 492.977 311.243 495.374 310.231 497.547C309.993 498.061 309.61 498.527 308.583 499.292C290.022 511.84 8.35522 550.219 -68.9943 582C-134.11 608.763 -21.9488 571.17 -68.9962 624.117C-69.0187 624.144 -68.9736 686.976 -68.9962 687L49.4973 812C48.8664 797.009 53.4185 729.875 69.4486 712C109.947 666.507 372.778 575.475 418.277 549.383C448.072 532.354 434.79 514.533 403.991 499.728C307.521 454.52 190.741 460.952 125.359 451.997C118.982 451.166 106.366 448.872 109.328 447.722C109.328 447.718 109.332 447.718 109.339 447.718C109.356 447.709 110.081 447.539 110.101 447.539C112.259 446.554 147.122 438 147.122 438Z" fill="white"/>
<path d="M242.154 408.062C242.261 407.977 242.366 407.893 242.473 407.811C242.424 407.875 242.313 407.959 242.154 408.062ZM510.646 419.297L497.218 416.428L485.538 409.482C480.963 406.476 475.604 402.755 474.558 401.747C473.981 400.812 471.979 398.438 463.787 390.247L463.073 389.528H442.648L434.574 386.306L419.101 376.295L396.661 347.567L372.58 319L356.749 327.998L355.395 334.978L345.148 338.577L335.503 345.736L319.373 359.291L316.566 373.6L295.481 361.828L282.464 374.081L279.21 379.339L273.755 383.927L266.566 386.325L263.586 393.033L248.436 399.363C244.047 399.896 238.747 404.399 236.717 406.266C226.602 407.749 204.812 426.641 201 430H202.874H208.512H282.637L278.559 425.593L266.651 422.656L258.169 417.271L278.395 416.944L273.828 412.539L290.792 415.149L299.926 416.944L309.876 415.476L327.981 421.677L311.833 413.844L300.414 411.723L294.379 405.521L271.871 396.382L280.189 394.425C280.189 394.425 287.856 393.608 288.671 393.608C289.487 393.608 295.685 397.036 295.685 397.036L308.244 401.768C308.244 401.768 300.904 394.425 300.09 393.119C299.273 391.813 292.749 386.102 292.749 386.102V380.717L295.569 371.406L309.123 378.639L327.899 387.408L340.623 395.974L346.414 401.331L342.685 401.172L325.098 397.46L345.433 406.258L353.589 407.969L366.802 410.172L378.055 410.417L379.822 411.196L406.714 426.181L395.768 430H410.841H436.042L409.034 422.681L404.836 418.217L400.806 409.236L394.944 407.969L381.203 401.538L372.157 391.137L380.218 390.266L388.302 391.137C388.302 391.137 371.264 384.263 369.89 383.576C368.516 382.889 360.445 376.637 360.445 376.637L351.388 360.971L367.536 359.013L349.43 348.976L359.217 344.08L364.966 340.898L371.46 344.08L364.966 334.657L371.46 325.266L392.186 349.848L418.426 383.368C418.426 383.368 422.259 386.429 422.748 386.754C423.238 387.081 430.415 393.282 430.741 394.423C431.068 395.563 443.953 407.48 443.953 407.48L437.755 394.423C437.755 394.423 442.484 399.157 442.811 399.646C443.137 400.136 450.315 404.869 451.62 405.848C452.924 406.827 457.165 406.337 457.981 406.827C458.796 407.316 472.823 413.844 472.823 413.844L466.789 406.827L461.042 394.423C465.153 398.555 469.483 403.059 470.29 404.145C470.678 404.988 472.135 406.53 482.895 413.604L489.161 417.332L486.635 417.301L474.086 414.735L481.231 418.126L495.409 421.05L508.728 423.9L527 430L510.646 419.297Z" fill="white"/>
<path fill-rule="evenodd" clip-rule="evenodd" d="M95.75 306.886C95.75 266.75 129.07 234.664 170.75 234.664C212.43 234.664 245.75 266.75 245.75 306.886C245.75 320.766 241.453 338.894 233.992 349.765L178.641 430.639C177 433.047 174.07 434.664 170.75 434.664C167.43 434.664 164.539 433.084 162.859 430.639L107.508 349.765C100.047 338.894 95.75 320.766 95.75 306.886Z" fill="#FF356E" stroke="white" stroke-width="6.05187"/>
<path d="M140.828 306.457C140.828 323.096 154.828 338.662 172.078 338.662C189.329 338.662 203.328 323.096 203.328 306.457C203.328 289.817 189.329 276.336 172.078 276.336C154.828 276.336 140.828 289.817 140.828 306.457Z" fill="white"/>
<mask id="path-6-outside-1_17010_192207" maskUnits="userSpaceOnUse" x="82" y="156" width="438" height="60" fill="black">
<rect fill="white" x="82" y="156" width="438" height="60"/>
<path d="M123.08 157.2V202H114.76V182.8H91.592V202H83.272V157.2H91.592V175.696H114.76V157.2H123.08ZM149.983 202.448C146.527 202.448 143.412 201.701 140.639 200.208C137.866 198.715 135.69 196.645 134.111 194C132.575 191.312 131.807 188.283 131.807 184.912C131.807 181.541 132.575 178.533 134.111 175.888C135.69 173.243 137.866 171.173 140.639 169.68C143.412 168.187 146.527 167.44 149.983 167.44C153.482 167.44 156.618 168.187 159.391 169.68C162.164 171.173 164.319 173.243 165.855 175.888C167.434 178.533 168.223 181.541 168.223 184.912C168.223 188.283 167.434 191.312 165.855 194C164.319 196.645 162.164 198.715 159.391 200.208C156.618 201.701 153.482 202.448 149.983 202.448ZM149.983 195.6C152.927 195.6 155.359 194.619 157.279 192.656C159.199 190.693 160.159 188.112 160.159 184.912C160.159 181.712 159.199 179.131 157.279 177.168C155.359 175.205 152.927 174.224 149.983 174.224C147.039 174.224 144.607 175.205 142.687 177.168C140.81 179.131 139.871 181.712 139.871 184.912C139.871 188.112 140.81 190.693 142.687 192.656C144.607 194.619 147.039 195.6 149.983 195.6ZM200.894 184.208C205.118 185.488 207.23 188.219 207.23 192.4C207.23 195.472 206.078 197.84 203.774 199.504C201.47 201.168 198.057 202 193.534 202H176.126V167.824H192.83C197.011 167.824 200.275 168.592 202.622 170.128C204.969 171.664 206.142 173.84 206.142 176.656C206.142 178.405 205.673 179.92 204.734 181.2C203.838 182.48 202.558 183.483 200.894 184.208ZM183.742 182.096H192.126C196.265 182.096 198.334 180.667 198.334 177.808C198.334 175.035 196.265 173.648 192.126 173.648H183.742V182.096ZM192.894 196.176C197.289 196.176 199.486 194.747 199.486 191.888C199.486 190.395 198.974 189.285 197.95 188.56C196.926 187.792 195.326 187.408 193.15 187.408H183.742V196.176H192.894ZM248.135 167.824V202H240.519V197.648C239.239 199.184 237.639 200.379 235.719 201.232C233.842 202.043 231.794 202.448 229.575 202.448C225.01 202.448 221.404 201.189 218.759 198.672C216.114 196.112 214.791 192.336 214.791 187.344V167.824H222.791V186.256C222.791 189.328 223.474 191.632 224.839 193.168C226.247 194.661 228.252 195.408 230.855 195.408C233.671 195.408 235.911 194.533 237.575 192.784C239.282 190.992 240.135 188.432 240.135 185.104V167.824H248.135ZM302.075 167.44C306.384 167.44 309.797 168.699 312.315 171.216C314.832 173.691 316.091 177.424 316.091 182.416V202H308.091V183.44C308.091 180.453 307.429 178.213 306.107 176.72C304.784 175.184 302.885 174.416 300.411 174.416C297.723 174.416 295.568 175.312 293.947 177.104C292.325 178.853 291.515 181.371 291.515 184.656V202H283.515V183.44C283.515 180.453 282.853 178.213 281.531 176.72C280.208 175.184 278.309 174.416 275.835 174.416C273.104 174.416 270.928 175.291 269.307 177.04C267.728 178.789 266.939 181.328 266.939 184.656V202H258.939V167.824H266.555V172.176C267.835 170.64 269.435 169.467 271.355 168.656C273.275 167.845 275.408 167.44 277.755 167.44C280.315 167.44 282.576 167.931 284.539 168.912C286.544 169.851 288.123 171.259 289.275 173.136C290.683 171.344 292.496 169.957 294.715 168.976C296.933 167.952 299.387 167.44 302.075 167.44ZM342.835 167.44C346.376 167.44 349.469 168.165 352.115 169.616C354.803 171.067 356.872 173.115 358.323 175.76C359.816 178.405 360.562 181.477 360.562 184.976C360.562 188.432 359.859 191.483 358.451 194.128C357.043 196.773 355.059 198.821 352.499 200.272C349.981 201.723 347.059 202.448 343.731 202.448C338.995 202.448 335.283 200.933 332.595 197.904V214.416H324.531V185.04C324.531 181.584 325.299 178.533 326.835 175.888C328.371 173.2 330.504 171.131 333.235 169.68C336.008 168.187 339.208 167.44 342.835 167.44ZM342.515 195.664C345.501 195.664 347.933 194.683 349.811 192.72C351.688 190.715 352.627 188.133 352.627 184.976C352.627 181.819 351.688 179.237 349.811 177.232C347.933 175.227 345.501 174.224 342.515 174.224C339.485 174.224 337.053 175.205 335.219 177.168C333.384 179.131 332.467 181.712 332.467 184.912C332.467 188.112 333.384 190.715 335.219 192.72C337.096 194.683 339.528 195.664 342.515 195.664ZM384.692 195.664C388.404 195.664 391.497 194.427 393.972 191.952L398.196 196.88C396.702 198.715 394.782 200.101 392.436 201.04C390.089 201.979 387.444 202.448 384.5 202.448C380.745 202.448 377.438 201.701 374.58 200.208C371.721 198.715 369.502 196.645 367.924 194C366.388 191.312 365.62 188.283 365.62 184.912C365.62 181.584 366.366 178.597 367.86 175.952C369.396 173.264 371.486 171.173 374.132 169.68C376.82 168.187 379.849 167.44 383.22 167.44C386.42 167.44 389.321 168.144 391.924 169.552C394.569 170.917 396.66 172.901 398.196 175.504C399.732 178.064 400.5 181.072 400.5 184.528L374.324 189.648C375.134 191.611 376.436 193.104 378.228 194.128C380.02 195.152 382.174 195.664 384.692 195.664ZM383.22 173.84C380.276 173.84 377.886 174.8 376.052 176.72C374.26 178.64 373.364 181.221 373.364 184.464V184.528L392.692 180.816C392.137 178.725 391.006 177.04 389.3 175.76C387.636 174.48 385.609 173.84 383.22 173.84ZM433.082 184.208C437.306 185.488 439.418 188.219 439.418 192.4C439.418 195.472 438.266 197.84 435.962 199.504C433.658 201.168 430.244 202 425.722 202H408.314V167.824H425.018C429.199 167.824 432.463 168.592 434.81 170.128C437.156 171.664 438.33 173.84 438.33 176.656C438.33 178.405 437.86 179.92 436.922 181.2C436.026 182.48 434.746 183.483 433.082 184.208ZM415.93 182.096H424.314C428.452 182.096 430.522 180.667 430.522 177.808C430.522 175.035 428.452 173.648 424.314 173.648H415.93V182.096ZM425.082 196.176C429.476 196.176 431.674 194.747 431.674 191.888C431.674 190.395 431.162 189.285 430.138 188.56C429.114 187.792 427.514 187.408 425.338 187.408H415.93V196.176H425.082ZM464.067 195.664C467.779 195.664 470.872 194.427 473.347 191.952L477.571 196.88C476.077 198.715 474.157 200.101 471.811 201.04C469.464 201.979 466.819 202.448 463.875 202.448C460.12 202.448 456.813 201.701 453.955 200.208C451.096 198.715 448.877 196.645 447.299 194C445.763 191.312 444.995 188.283 444.995 184.912C444.995 181.584 445.741 178.597 447.235 175.952C448.771 173.264 450.861 171.173 453.507 169.68C456.195 168.187 459.224 167.44 462.595 167.44C465.795 167.44 468.696 168.144 471.299 169.552C473.944 170.917 476.035 172.901 477.571 175.504C479.107 178.064 479.875 181.072 479.875 184.528L453.699 189.648C454.509 191.611 455.811 193.104 457.603 194.128C459.395 195.152 461.549 195.664 464.067 195.664ZM462.595 173.84C459.651 173.84 457.261 174.8 455.427 176.72C453.635 178.64 452.739 181.221 452.739 184.464V184.528L472.067 180.816C471.512 178.725 470.381 177.04 468.675 175.76C467.011 174.48 464.984 173.84 462.595 173.84ZM518.227 167.824V202H510.227V174.608H497.427L497.107 181.392C496.894 185.915 496.467 189.712 495.827 192.784C495.23 195.813 494.184 198.224 492.691 200.016C491.24 201.765 489.235 202.64 486.675 202.64C485.48 202.64 484.008 202.405 482.259 201.936L482.643 195.216C483.24 195.344 483.752 195.408 484.179 195.408C485.8 195.408 487.016 194.768 487.827 193.488C488.638 192.165 489.15 190.608 489.363 188.816C489.619 186.981 489.832 184.379 490.003 181.008L490.579 167.824H518.227Z"/>
</mask>
<path d="M123.08 157.2V202H114.76V182.8H91.592V202H83.272V157.2H91.592V175.696H114.76V157.2H123.08ZM149.983 202.448C146.527 202.448 143.412 201.701 140.639 200.208C137.866 198.715 135.69 196.645 134.111 194C132.575 191.312 131.807 188.283 131.807 184.912C131.807 181.541 132.575 178.533 134.111 175.888C135.69 173.243 137.866 171.173 140.639 169.68C143.412 168.187 146.527 167.44 149.983 167.44C153.482 167.44 156.618 168.187 159.391 169.68C162.164 171.173 164.319 173.243 165.855 175.888C167.434 178.533 168.223 181.541 168.223 184.912C168.223 188.283 167.434 191.312 165.855 194C164.319 196.645 162.164 198.715 159.391 200.208C156.618 201.701 153.482 202.448 149.983 202.448ZM149.983 195.6C152.927 195.6 155.359 194.619 157.279 192.656C159.199 190.693 160.159 188.112 160.159 184.912C160.159 181.712 159.199 179.131 157.279 177.168C155.359 175.205 152.927 174.224 149.983 174.224C147.039 174.224 144.607 175.205 142.687 177.168C140.81 179.131 139.871 181.712 139.871 184.912C139.871 188.112 140.81 190.693 142.687 192.656C144.607 194.619 147.039 195.6 149.983 195.6ZM200.894 184.208C205.118 185.488 207.23 188.219 207.23 192.4C207.23 195.472 206.078 197.84 203.774 199.504C201.47 201.168 198.057 202 193.534 202H176.126V167.824H192.83C197.011 167.824 200.275 168.592 202.622 170.128C204.969 171.664 206.142 173.84 206.142 176.656C206.142 178.405 205.673 179.92 204.734 181.2C203.838 182.48 202.558 183.483 200.894 184.208ZM183.742 182.096H192.126C196.265 182.096 198.334 180.667 198.334 177.808C198.334 175.035 196.265 173.648 192.126 173.648H183.742V182.096ZM192.894 196.176C197.289 196.176 199.486 194.747 199.486 191.888C199.486 190.395 198.974 189.285 197.95 188.56C196.926 187.792 195.326 187.408 193.15 187.408H183.742V196.176H192.894ZM248.135 167.824V202H240.519V197.648C239.239 199.184 237.639 200.379 235.719 201.232C233.842 202.043 231.794 202.448 229.575 202.448C225.01 202.448 221.404 201.189 218.759 198.672C216.114 196.112 214.791 192.336 214.791 187.344V167.824H222.791V186.256C222.791 189.328 223.474 191.632 224.839 193.168C226.247 194.661 228.252 195.408 230.855 195.408C233.671 195.408 235.911 194.533 237.575 192.784C239.282 190.992 240.135 188.432 240.135 185.104V167.824H248.135ZM302.075 167.44C306.384 167.44 309.797 168.699 312.315 171.216C314.832 173.691 316.091 177.424 316.091 182.416V202H308.091V183.44C308.091 180.453 307.429 178.213 306.107 176.72C304.784 175.184 302.885 174.416 300.411 174.416C297.723 174.416 295.568 175.312 293.947 177.104C292.325 178.853 291.515 181.371 291.515 184.656V202H283.515V183.44C283.515 180.453 282.853 178.213 281.531 176.72C280.208 175.184 278.309 174.416 275.835 174.416C273.104 174.416 270.928 175.291 269.307 177.04C267.728 178.789 266.939 181.328 266.939 184.656V202H258.939V167.824H266.555V172.176C267.835 170.64 269.435 169.467 271.355 168.656C273.275 167.845 275.408 167.44 277.755 167.44C280.315 167.44 282.576 167.931 284.539 168.912C286.544 169.851 288.123 171.259 289.275 173.136C290.683 171.344 292.496 169.957 294.715 168.976C296.933 167.952 299.387 167.44 302.075 167.44ZM342.835 167.44C346.376 167.44 349.469 168.165 352.115 169.616C354.803 171.067 356.872 173.115 358.323 175.76C359.816 178.405 360.562 181.477 360.562 184.976C360.562 188.432 359.859 191.483 358.451 194.128C357.043 196.773 355.059 198.821 352.499 200.272C349.981 201.723 347.059 202.448 343.731 202.448C338.995 202.448 335.283 200.933 332.595 197.904V214.416H324.531V185.04C324.531 181.584 325.299 178.533 326.835 175.888C328.371 173.2 330.504 171.131 333.235 169.68C336.008 168.187 339.208 167.44 342.835 167.44ZM342.515 195.664C345.501 195.664 347.933 194.683 349.811 192.72C351.688 190.715 352.627 188.133 352.627 184.976C352.627 181.819 351.688 179.237 349.811 177.232C347.933 175.227 345.501 174.224 342.515 174.224C339.485 174.224 337.053 175.205 335.219 177.168C333.384 179.131 332.467 181.712 332.467 184.912C332.467 188.112 333.384 190.715 335.219 192.72C337.096 194.683 339.528 195.664 342.515 195.664ZM384.692 195.664C388.404 195.664 391.497 194.427 393.972 191.952L398.196 196.88C396.702 198.715 394.782 200.101 392.436 201.04C390.089 201.979 387.444 202.448 384.5 202.448C380.745 202.448 377.438 201.701 374.58 200.208C371.721 198.715 369.502 196.645 367.924 194C366.388 191.312 365.62 188.283 365.62 184.912C365.62 181.584 366.366 178.597 367.86 175.952C369.396 173.264 371.486 171.173 374.132 169.68C376.82 168.187 379.849 167.44 383.22 167.44C386.42 167.44 389.321 168.144 391.924 169.552C394.569 170.917 396.66 172.901 398.196 175.504C399.732 178.064 400.5 181.072 400.5 184.528L374.324 189.648C375.134 191.611 376.436 193.104 378.228 194.128C380.02 195.152 382.174 195.664 384.692 195.664ZM383.22 173.84C380.276 173.84 377.886 174.8 376.052 176.72C374.26 178.64 373.364 181.221 373.364 184.464V184.528L392.692 180.816C392.137 178.725 391.006 177.04 389.3 175.76C387.636 174.48 385.609 173.84 383.22 173.84ZM433.082 184.208C437.306 185.488 439.418 188.219 439.418 192.4C439.418 195.472 438.266 197.84 435.962 199.504C433.658 201.168 430.244 202 425.722 202H408.314V167.824H425.018C429.199 167.824 432.463 168.592 434.81 170.128C437.156 171.664 438.33 173.84 438.33 176.656C438.33 178.405 437.86 179.92 436.922 181.2C436.026 182.48 434.746 183.483 433.082 184.208ZM415.93 182.096H424.314C428.452 182.096 430.522 180.667 430.522 177.808C430.522 175.035 428.452 173.648 424.314 173.648H415.93V182.096ZM425.082 196.176C429.476 196.176 431.674 194.747 431.674 191.888C431.674 190.395 431.162 189.285 430.138 188.56C429.114 187.792 427.514 187.408 425.338 187.408H415.93V196.176H425.082ZM464.067 195.664C467.779 195.664 470.872 194.427 473.347 191.952L477.571 196.88C476.077 198.715 474.157 200.101 471.811 201.04C469.464 201.979 466.819 202.448 463.875 202.448C460.12 202.448 456.813 201.701 453.955 200.208C451.096 198.715 448.877 196.645 447.299 194C445.763 191.312 444.995 188.283 444.995 184.912C444.995 181.584 445.741 178.597 447.235 175.952C448.771 173.264 450.861 171.173 453.507 169.68C456.195 168.187 459.224 167.44 462.595 167.44C465.795 167.44 468.696 168.144 471.299 169.552C473.944 170.917 476.035 172.901 477.571 175.504C479.107 178.064 479.875 181.072 479.875 184.528L453.699 189.648C454.509 191.611 455.811 193.104 457.603 194.128C459.395 195.152 461.549 195.664 464.067 195.664ZM462.595 173.84C459.651 173.84 457.261 174.8 455.427 176.72C453.635 178.64 452.739 181.221 452.739 184.464V184.528L472.067 180.816C471.512 178.725 470.381 177.04 468.675 175.76C467.011 174.48 464.984 173.84 462.595 173.84ZM518.227 167.824V202H510.227V174.608H497.427L497.107 181.392C496.894 185.915 496.467 189.712 495.827 192.784C495.23 195.813 494.184 198.224 492.691 200.016C491.24 201.765 489.235 202.64 486.675 202.64C485.48 202.64 484.008 202.405 482.259 201.936L482.643 195.216C483.24 195.344 483.752 195.408 484.179 195.408C485.8 195.408 487.016 194.768 487.827 193.488C488.638 192.165 489.15 190.608 489.363 188.816C489.619 186.981 489.832 184.379 490.003 181.008L490.579 167.824H518.227Z" fill="white"/>
<path d="M123.08 157.2H124.08V156.2H123.08V157.2ZM123.08 202V203H124.08V202H123.08ZM114.76 202H113.76V203H114.76V202ZM114.76 182.8H115.76V181.8H114.76V182.8ZM91.592 182.8V181.8H90.592V182.8H91.592ZM91.592 202V203H92.592V202H91.592ZM83.272 202H82.272V203H83.272V202ZM83.272 157.2V156.2H82.272V157.2H83.272ZM91.592 157.2H92.592V156.2H91.592V157.2ZM91.592 175.696H90.592V176.696H91.592V175.696ZM114.76 175.696V176.696H115.76V175.696H114.76ZM114.76 157.2V156.2H113.76V157.2H114.76ZM122.08 157.2V202H124.08V157.2H122.08ZM123.08 201H114.76V203H123.08V201ZM115.76 202V182.8H113.76V202H115.76ZM114.76 181.8H91.592V183.8H114.76V181.8ZM90.592 182.8V202H92.592V182.8H90.592ZM91.592 201H83.272V203H91.592V201ZM84.272 202V157.2H82.272V202H84.272ZM83.272 158.2H91.592V156.2H83.272V158.2ZM90.592 157.2V175.696H92.592V157.2H90.592ZM91.592 176.696H114.76V174.696H91.592V176.696ZM115.76 175.696V157.2H113.76V175.696H115.76ZM114.76 158.2H123.08V156.2H114.76V158.2ZM140.639 200.208L141.113 199.328L141.113 199.328L140.639 200.208ZM134.111 194L133.243 194.496L133.247 194.504L133.252 194.512L134.111 194ZM134.111 175.888L133.252 175.376L133.246 175.386L134.111 175.888ZM140.639 169.68L141.113 170.56L141.113 170.56L140.639 169.68ZM159.391 169.68L158.917 170.56L158.917 170.56L159.391 169.68ZM165.855 175.888L164.99 176.39L164.996 176.4L165.855 175.888ZM165.855 194L164.993 193.494L164.99 193.498L165.855 194ZM159.391 200.208L158.917 199.328L158.917 199.328L159.391 200.208ZM157.279 192.656L156.564 191.957L156.564 191.957L157.279 192.656ZM157.279 177.168L156.564 177.867L156.564 177.867L157.279 177.168ZM142.687 177.168L141.972 176.469L141.964 176.477L142.687 177.168ZM142.687 192.656L141.964 193.347L141.972 193.355L142.687 192.656ZM149.983 201.448C146.676 201.448 143.727 200.735 141.113 199.328L140.165 201.088C143.098 202.668 146.378 203.448 149.983 203.448V201.448ZM141.113 199.328C138.495 197.918 136.454 195.974 134.97 193.488L133.252 194.512C134.926 197.317 137.236 199.511 140.165 201.088L141.113 199.328ZM134.979 193.504C133.537 190.98 132.807 188.125 132.807 184.912H130.807C130.807 188.441 131.613 191.644 133.243 194.496L134.979 193.504ZM132.807 184.912C132.807 181.699 133.537 178.868 134.976 176.39L133.246 175.386C131.613 178.199 130.807 181.383 130.807 184.912H132.807ZM134.97 176.4C136.454 173.914 138.495 171.97 141.113 170.56L140.165 168.8C137.236 170.377 134.926 172.571 133.252 175.376L134.97 176.4ZM141.113 170.56C143.727 169.153 146.676 168.44 149.983 168.44V166.44C146.378 166.44 143.098 167.22 140.165 168.8L141.113 170.56ZM149.983 168.44C153.335 168.44 156.305 169.154 158.917 170.56L159.865 168.8C156.93 167.219 153.628 166.44 149.983 166.44V168.44ZM158.917 170.56C161.533 171.969 163.55 173.91 164.99 176.39L166.72 175.386C165.088 172.576 162.796 170.378 159.865 168.8L158.917 170.56ZM164.996 176.4C166.474 178.876 167.223 181.704 167.223 184.912H169.223C169.223 181.378 168.393 178.19 166.714 175.376L164.996 176.4ZM167.223 184.912C167.223 188.12 166.474 190.972 164.993 193.494L166.717 194.506C168.393 191.652 169.223 188.446 169.223 184.912H167.223ZM164.99 193.498C163.55 195.978 161.533 197.919 158.917 199.328L159.865 201.088C162.796 199.51 165.088 197.312 166.72 194.502L164.99 193.498ZM158.917 199.328C156.305 200.734 153.335 201.448 149.983 201.448V203.448C153.628 203.448 156.93 202.669 159.865 201.088L158.917 199.328ZM149.983 196.6C153.174 196.6 155.871 195.525 157.994 193.355L156.564 191.957C154.847 193.712 152.68 194.6 149.983 194.6V196.6ZM157.994 193.355C160.127 191.175 161.159 188.327 161.159 184.912H159.159C159.159 187.897 158.271 190.212 156.564 191.957L157.994 193.355ZM161.159 184.912C161.159 181.497 160.127 178.649 157.994 176.469L156.564 177.867C158.271 179.612 159.159 181.927 159.159 184.912H161.159ZM157.994 176.469C155.871 174.299 153.174 173.224 149.983 173.224V175.224C152.68 175.224 154.847 176.112 156.564 177.867L157.994 176.469ZM149.983 173.224C146.792 173.224 144.095 174.299 141.972 176.469L143.402 177.867C145.119 176.112 147.286 175.224 149.983 175.224V173.224ZM141.964 176.477C139.878 178.658 138.871 181.504 138.871 184.912H140.871C140.871 181.92 141.742 179.603 143.41 177.859L141.964 176.477ZM138.871 184.912C138.871 188.32 139.878 191.166 141.964 193.347L143.41 191.965C141.742 190.221 140.871 187.904 140.871 184.912H138.871ZM141.972 193.355C144.095 195.525 146.792 196.6 149.983 196.6V194.6C147.286 194.6 145.119 193.712 143.402 191.957L141.972 193.355ZM200.894 184.208L200.494 183.291L198.004 184.377L200.604 185.165L200.894 184.208ZM176.126 202H175.126V203H176.126V202ZM176.126 167.824V166.824H175.126V167.824H176.126ZM202.622 170.128L202.074 170.965L202.622 170.128ZM204.734 181.2L203.928 180.609L203.921 180.618L203.915 180.627L204.734 181.2ZM183.742 182.096H182.742V183.096H183.742V182.096ZM183.742 173.648V172.648H182.742V173.648H183.742ZM197.95 188.56L197.35 189.36L197.361 189.368L197.372 189.376L197.95 188.56ZM183.742 187.408V186.408H182.742V187.408H183.742ZM183.742 196.176H182.742V197.176H183.742V196.176ZM200.604 185.165C202.573 185.762 203.957 186.667 204.855 187.828C205.749 188.983 206.23 190.483 206.23 192.4H208.23C208.23 190.136 207.655 188.179 206.437 186.604C205.223 185.034 203.439 183.934 201.184 183.251L200.604 185.165ZM206.23 192.4C206.23 195.181 205.209 197.234 203.189 198.693L204.359 200.315C206.947 198.446 208.23 195.763 208.23 192.4H206.23ZM203.189 198.693C201.129 200.181 197.961 201 193.534 201V203C198.152 203 201.811 202.155 204.359 200.315L203.189 198.693ZM193.534 201H176.126V203H193.534V201ZM177.126 202V167.824H175.126V202H177.126ZM176.126 168.824H192.83V166.824H176.126V168.824ZM192.83 168.824C196.906 168.824 199.952 169.576 202.074 170.965L203.17 169.291C200.599 167.608 197.116 166.824 192.83 166.824V168.824ZM202.074 170.965C204.137 172.315 205.142 174.176 205.142 176.656H207.142C207.142 173.504 205.8 171.013 203.17 169.291L202.074 170.965ZM205.142 176.656C205.142 178.215 204.728 179.518 203.928 180.609L205.54 181.791C206.618 180.322 207.142 178.595 207.142 176.656H205.142ZM203.915 180.627C203.14 181.733 202.017 182.627 200.494 183.291L201.294 185.125C203.099 184.338 204.536 183.227 205.553 181.773L203.915 180.627ZM183.742 183.096H192.126V181.096H183.742V183.096ZM192.126 183.096C194.28 183.096 196.072 182.73 197.35 181.847C198.696 180.918 199.334 179.514 199.334 177.808H197.334C197.334 178.961 196.938 179.701 196.214 180.201C195.423 180.748 194.111 181.096 192.126 181.096V183.096ZM199.334 177.808C199.334 176.132 198.685 174.76 197.339 173.857C196.063 173.002 194.276 172.648 192.126 172.648V174.648C194.115 174.648 195.432 174.987 196.225 175.519C196.948 176.003 197.334 176.71 197.334 177.808H199.334ZM192.126 172.648H183.742V174.648H192.126V172.648ZM182.742 173.648V182.096H184.742V173.648H182.742ZM192.894 197.176C195.168 197.176 197.046 196.812 198.383 195.942C199.795 195.024 200.486 193.619 200.486 191.888H198.486C198.486 193.015 198.079 193.755 197.293 194.266C196.432 194.825 195.015 195.176 192.894 195.176V197.176ZM200.486 191.888C200.486 190.141 199.869 188.694 198.528 187.744L197.372 189.376C198.079 189.877 198.486 190.649 198.486 191.888H200.486ZM198.55 187.76C197.269 186.799 195.406 186.408 193.15 186.408V188.408C195.246 188.408 196.583 188.785 197.35 189.36L198.55 187.76ZM193.15 186.408H183.742V188.408H193.15V186.408ZM182.742 187.408V196.176H184.742V187.408H182.742ZM183.742 197.176H192.894V195.176H183.742V197.176ZM248.135 167.824H249.135V166.824H248.135V167.824ZM248.135 202V203H249.135V202H248.135ZM240.519 202H239.519V203H240.519V202ZM240.519 197.648H241.519V194.886L239.751 197.008L240.519 197.648ZM235.719 201.232L236.115 202.15L236.125 202.146L235.719 201.232ZM218.759 198.672L218.064 199.391L218.07 199.396L218.759 198.672ZM214.791 167.824V166.824H213.791V167.824H214.791ZM222.791 167.824H223.791V166.824H222.791V167.824ZM224.839 193.168L224.092 193.832L224.101 193.843L224.111 193.854L224.839 193.168ZM237.575 192.784L236.851 192.094L236.85 192.095L237.575 192.784ZM240.135 167.824V166.824H239.135V167.824H240.135ZM247.135 167.824V202H249.135V167.824H247.135ZM248.135 201H240.519V203H248.135V201ZM241.519 202V197.648H239.519V202H241.519ZM239.751 197.008C238.574 198.42 237.1 199.524 235.313 200.318L236.125 202.146C238.178 201.233 239.904 199.948 241.287 198.288L239.751 197.008ZM235.323 200.314C233.581 201.066 231.669 201.448 229.575 201.448V203.448C231.918 203.448 234.103 203.019 236.115 202.15L235.323 200.314ZM229.575 201.448C225.199 201.448 221.864 200.246 219.448 197.948L218.07 199.396C220.945 202.132 224.82 203.448 229.575 203.448V201.448ZM219.454 197.953C217.065 195.641 215.791 192.165 215.791 187.344H213.791C213.791 192.507 215.162 196.583 218.064 199.391L219.454 197.953ZM215.791 187.344V167.824H213.791V187.344H215.791ZM214.791 168.824H222.791V166.824H214.791V168.824ZM221.791 167.824V186.256H223.791V167.824H221.791ZM221.791 186.256C221.791 189.455 222.499 192.041 224.092 193.832L225.586 192.504C224.448 191.223 223.791 189.201 223.791 186.256H221.791ZM224.111 193.854C225.756 195.598 228.055 196.408 230.855 196.408V194.408C228.449 194.408 226.738 193.724 225.567 192.482L224.111 193.854ZM230.855 196.408C233.895 196.408 236.415 195.454 238.3 193.473L236.85 192.095C235.407 193.612 233.447 194.408 230.855 194.408V196.408ZM238.299 193.474C240.237 191.439 241.135 188.598 241.135 185.104H239.135C239.135 188.266 238.327 190.545 236.851 192.094L238.299 193.474ZM241.135 185.104V167.824H239.135V185.104H241.135ZM240.135 168.824H248.135V166.824H240.135V168.824ZM312.315 171.216L311.607 171.923L311.613 171.929L312.315 171.216ZM316.091 202V203H317.091V202H316.091ZM308.091 202H307.091V203H308.091V202ZM306.107 176.72L305.349 177.373L305.358 177.383L306.107 176.72ZM293.947 177.104L294.68 177.784L294.688 177.775L293.947 177.104ZM291.515 202V203H292.515V202H291.515ZM283.515 202H282.515V203H283.515V202ZM281.531 176.72L280.773 177.373L280.782 177.383L281.531 176.72ZM269.307 177.04L268.573 176.36L268.564 176.37L269.307 177.04ZM266.939 202V203H267.939V202H266.939ZM258.939 202H257.939V203H258.939V202ZM258.939 167.824V166.824H257.939V167.824H258.939ZM266.555 167.824H267.555V166.824H266.555V167.824ZM266.555 172.176H265.555V174.938L267.323 172.816L266.555 172.176ZM271.355 168.656L271.743 169.577L271.743 169.577L271.355 168.656ZM284.539 168.912L284.091 169.806L284.103 169.812L284.115 169.818L284.539 168.912ZM289.275 173.136L288.422 173.659L289.173 174.883L290.061 173.754L289.275 173.136ZM294.715 168.976L295.119 169.891L295.126 169.887L295.134 169.884L294.715 168.976ZM302.075 168.44C306.178 168.44 309.316 169.632 311.607 171.923L313.022 170.509C310.278 167.766 306.589 166.44 302.075 166.44V168.44ZM311.613 171.929C313.872 174.149 315.091 177.58 315.091 182.416H317.091C317.091 177.268 315.792 173.232 313.016 170.503L311.613 171.929ZM315.091 182.416V202H317.091V182.416H315.091ZM316.091 201H308.091V203H316.091V201ZM309.091 202V183.44H307.091V202H309.091ZM309.091 183.44C309.091 180.327 308.404 177.806 306.855 176.057L305.358 177.383C306.455 178.621 307.091 180.58 307.091 183.44H309.091ZM306.864 176.067C305.31 174.263 303.106 173.416 300.411 173.416V175.416C302.664 175.416 304.257 176.105 305.349 177.373L306.864 176.067ZM300.411 173.416C297.475 173.416 295.038 174.407 293.205 176.433L294.688 177.775C296.097 176.217 297.97 175.416 300.411 175.416V173.416ZM293.213 176.424C291.365 178.419 290.515 181.215 290.515 184.656H292.515C292.515 181.527 293.286 179.288 294.68 177.784L293.213 176.424ZM290.515 184.656V202H292.515V184.656H290.515ZM291.515 201H283.515V203H291.515V201ZM284.515 202V183.44H282.515V202H284.515ZM284.515 183.44C284.515 180.327 283.828 177.806 282.279 176.057L280.782 177.383C281.878 178.621 282.515 180.58 282.515 183.44H284.515ZM282.288 176.067C280.734 174.263 278.53 173.416 275.835 173.416V175.416C278.088 175.416 279.681 176.105 280.773 177.373L282.288 176.067ZM275.835 173.416C272.87 173.416 270.412 174.376 268.573 176.36L270.04 177.72C271.444 176.205 273.338 175.416 275.835 175.416V173.416ZM268.564 176.37C266.762 178.367 265.939 181.182 265.939 184.656H267.939C267.939 181.474 268.693 179.212 270.049 177.71L268.564 176.37ZM265.939 184.656V202H267.939V184.656H265.939ZM266.939 201H258.939V203H266.939V201ZM259.939 202V167.824H257.939V202H259.939ZM258.939 168.824H266.555V166.824H258.939V168.824ZM265.555 167.824V172.176H267.555V167.824H265.555ZM267.323 172.816C268.496 171.408 269.964 170.329 271.743 169.577L270.966 167.735C268.905 168.605 267.173 169.872 265.786 171.536L267.323 172.816ZM271.743 169.577C273.526 168.825 275.525 168.44 277.755 168.44V166.44C275.291 166.44 273.023 166.866 270.966 167.735L271.743 169.577ZM277.755 168.44C280.185 168.44 282.289 168.905 284.091 169.806L284.986 168.018C282.863 166.956 280.444 166.44 277.755 166.44V168.44ZM284.115 169.818C285.944 170.674 287.373 171.949 288.422 173.659L290.127 172.613C288.872 170.568 287.144 169.027 284.962 168.006L284.115 169.818ZM290.061 173.754C291.361 172.099 293.04 170.81 295.119 169.891L294.31 168.061C291.952 169.105 290.004 170.589 288.488 172.518L290.061 173.754ZM295.134 169.884C297.208 168.926 299.517 168.44 302.075 168.44V166.44C299.256 166.44 296.658 166.978 294.295 168.068L295.134 169.884ZM352.115 169.616L351.634 170.493L351.64 170.496L352.115 169.616ZM358.323 175.76L357.446 176.241L357.452 176.252L358.323 175.76ZM352.499 200.272L352.005 199.402L351.999 199.406L352.499 200.272ZM332.595 197.904L333.342 197.24L331.595 195.27V197.904H332.595ZM332.595 214.416V215.416H333.595V214.416H332.595ZM324.531 214.416H323.531V215.416H324.531V214.416ZM326.835 175.888L327.699 176.39L327.703 176.384L326.835 175.888ZM333.235 169.68L333.704 170.563L333.709 170.56L333.235 169.68ZM349.811 192.72L350.533 193.411L350.541 193.403L349.811 192.72ZM349.811 177.232L349.08 177.915L349.08 177.915L349.811 177.232ZM335.219 177.168L335.949 177.851L335.949 177.851L335.219 177.168ZM335.219 192.72L334.481 193.395L334.488 193.403L334.496 193.411L335.219 192.72ZM342.835 168.44C346.237 168.44 349.159 169.136 351.634 170.493L352.595 168.739C349.779 167.195 346.515 166.44 342.835 166.44V168.44ZM351.64 170.496C354.16 171.856 356.089 173.767 357.446 176.241L359.199 175.279C357.655 172.463 355.445 170.277 352.589 168.736L351.64 170.496ZM357.452 176.252C358.848 178.725 359.562 181.623 359.562 184.976H361.562C361.562 181.332 360.783 178.085 359.193 175.268L357.452 176.252ZM359.562 184.976C359.562 188.293 358.888 191.178 357.568 193.658L359.333 194.598C360.829 191.787 361.562 188.571 361.562 184.976H359.562ZM357.568 193.658C356.247 196.139 354.397 198.047 352.005 199.402L352.992 201.142C355.72 199.596 357.838 197.408 359.333 194.598L357.568 193.658ZM351.999 199.406C349.655 200.757 346.909 201.448 343.731 201.448V203.448C347.208 203.448 350.308 202.689 352.998 201.138L351.999 199.406ZM343.731 201.448C339.227 201.448 335.808 200.019 333.342 197.24L331.847 198.568C334.757 201.848 338.762 203.448 343.731 203.448V201.448ZM331.595 197.904V214.416H333.595V197.904H331.595ZM332.595 213.416H324.531V215.416H332.595V213.416ZM325.531 214.416V185.04H323.531V214.416H325.531ZM325.531 185.04C325.531 181.737 326.263 178.864 327.699 176.39L325.97 175.386C324.334 178.203 323.531 181.431 323.531 185.04H325.531ZM327.703 176.384C329.145 173.86 331.14 171.925 333.704 170.563L332.765 168.797C329.868 170.336 327.596 172.54 325.966 175.392L327.703 176.384ZM333.709 170.56C336.316 169.157 339.348 168.44 342.835 168.44V166.44C339.068 166.44 335.7 167.217 332.76 168.8L333.709 170.56ZM342.515 196.664C345.744 196.664 348.447 195.592 350.533 193.411L349.088 192.029C347.419 193.773 345.258 194.664 342.515 194.664V196.664ZM350.541 193.403C352.617 191.185 353.627 188.346 353.627 184.976H351.627C351.627 187.92 350.758 190.244 349.08 192.037L350.541 193.403ZM353.627 184.976C353.627 181.606 352.617 178.767 350.541 176.549L349.08 177.915C350.758 179.708 351.627 182.032 351.627 184.976H353.627ZM350.541 176.549C348.456 174.322 345.751 173.224 342.515 173.224V175.224C345.251 175.224 347.41 176.131 349.08 177.915L350.541 176.549ZM342.515 173.224C339.247 173.224 336.537 174.293 334.488 176.485L335.949 177.851C337.57 176.117 339.723 175.224 342.515 175.224V173.224ZM334.488 176.485C332.448 178.667 331.467 181.51 331.467 184.912H333.467C333.467 181.914 334.32 179.594 335.949 177.851L334.488 176.485ZM331.467 184.912C331.467 188.315 332.448 191.173 334.481 193.395L335.956 192.045C334.32 190.256 333.467 187.909 333.467 184.912H331.467ZM334.496 193.411C336.582 195.592 339.285 196.664 342.515 196.664V194.664C339.771 194.664 337.61 193.773 335.941 192.029L334.496 193.411ZM393.972 191.952L394.731 191.301L394.028 190.481L393.264 191.245L393.972 191.952ZM398.196 196.88L398.971 197.511L399.498 196.863L398.955 196.229L398.196 196.88ZM392.436 201.04L392.064 200.112L392.064 200.112L392.436 201.04ZM374.58 200.208L374.116 201.094L374.116 201.094L374.58 200.208ZM367.924 194L367.055 194.496L367.06 194.504L367.065 194.512L367.924 194ZM367.86 175.952L366.991 175.456L366.989 175.46L367.86 175.952ZM374.132 169.68L373.646 168.806L373.64 168.809L374.132 169.68ZM391.924 169.552L391.448 170.432L391.456 170.436L391.465 170.441L391.924 169.552ZM398.196 175.504L397.334 176.012L397.338 176.018L398.196 175.504ZM400.5 184.528L400.691 185.509L401.5 185.351V184.528H400.5ZM374.324 189.648L374.132 188.667L372.933 188.901L373.399 190.03L374.324 189.648ZM378.228 194.128L378.724 193.26L378.724 193.26L378.228 194.128ZM376.052 176.72L375.328 176.029L375.32 176.038L376.052 176.72ZM373.364 184.528H372.364V185.738L373.552 185.51L373.364 184.528ZM392.692 180.816L392.88 181.798L393.933 181.596L393.658 180.56L392.692 180.816ZM389.3 175.76L388.69 176.553L388.7 176.56L389.3 175.76ZM384.692 196.664C388.651 196.664 392.004 195.334 394.679 192.659L393.264 191.245C390.99 193.52 388.156 194.664 384.692 194.664V196.664ZM393.212 192.603L397.436 197.531L398.955 196.229L394.731 191.301L393.212 192.603ZM397.42 196.249C396.041 197.943 394.264 199.232 392.064 200.112L392.807 201.968C395.3 200.971 397.363 199.487 398.971 197.511L397.42 196.249ZM392.064 200.112C389.853 200.996 387.337 201.448 384.5 201.448V203.448C387.55 203.448 390.324 202.962 392.807 201.968L392.064 200.112ZM384.5 201.448C380.88 201.448 377.736 200.729 375.043 199.322L374.116 201.094C377.14 202.674 380.61 203.448 384.5 203.448V201.448ZM375.043 199.322C372.34 197.91 370.262 195.966 368.782 193.488L367.065 194.512C368.743 197.324 371.102 199.52 374.116 201.094L375.043 199.322ZM368.792 193.504C367.35 190.98 366.62 188.125 366.62 184.912H364.62C364.62 188.441 365.425 191.644 367.055 194.496L368.792 193.504ZM366.62 184.912C366.62 181.739 367.33 178.925 368.73 176.444L366.989 175.46C365.403 178.27 364.62 181.429 364.62 184.912H366.62ZM368.728 176.448C370.176 173.914 372.138 171.954 374.623 170.551L373.64 168.809C370.834 170.393 368.615 172.614 366.991 175.456L368.728 176.448ZM374.617 170.554C377.143 169.151 380.002 168.44 383.22 168.44V166.44C379.696 166.44 376.496 167.222 373.646 168.806L374.617 170.554ZM383.22 168.44C386.267 168.44 389.003 169.109 391.448 170.432L392.399 168.672C389.639 167.179 386.572 166.44 383.22 166.44V168.44ZM391.465 170.441C393.94 171.718 395.892 173.569 397.334 176.012L399.057 174.996C397.427 172.234 395.197 170.116 392.382 168.663L391.465 170.441ZM397.338 176.018C398.767 178.4 399.5 181.224 399.5 184.528H401.5C401.5 180.92 400.696 177.728 399.053 174.99L397.338 176.018ZM400.308 183.547L374.132 188.667L374.515 190.629L400.691 185.509L400.308 183.547ZM373.399 190.03C374.292 192.191 375.741 193.859 377.731 194.996L378.724 193.26C377.13 192.349 375.976 191.03 375.248 189.266L373.399 190.03ZM377.731 194.996C379.704 196.124 382.038 196.664 384.692 196.664V194.664C382.31 194.664 380.335 194.18 378.724 193.26L377.731 194.996ZM383.22 172.84C380.035 172.84 377.373 173.889 375.329 176.029L376.774 177.411C378.399 175.711 380.516 174.84 383.22 174.84V172.84ZM375.32 176.038C373.317 178.184 372.364 181.03 372.364 184.464H374.364C374.364 181.412 375.202 179.096 376.783 177.402L375.32 176.038ZM372.364 184.464V184.528H374.364V184.464H372.364ZM373.552 185.51L392.88 181.798L392.503 179.834L373.175 183.546L373.552 185.51ZM393.658 180.56C393.047 178.255 391.789 176.377 389.9 174.96L388.7 176.56C390.224 177.703 391.227 179.196 391.725 181.072L393.658 180.56ZM389.909 174.967C388.047 173.535 385.797 172.84 383.22 172.84V174.84C385.42 174.84 387.224 175.425 388.69 176.553L389.909 174.967ZM433.082 184.208L432.682 183.291L430.191 184.377L432.791 185.165L433.082 184.208ZM408.314 202H407.314V203H408.314V202ZM408.314 167.824V166.824H407.314V167.824H408.314ZM434.81 170.128L434.262 170.965L434.81 170.128ZM436.922 181.2L436.115 180.609L436.109 180.618L436.102 180.627L436.922 181.2ZM415.93 182.096H414.93V183.096H415.93V182.096ZM415.93 173.648V172.648H414.93V173.648H415.93ZM430.138 188.56L429.538 189.36L429.548 189.368L429.559 189.376L430.138 188.56ZM415.93 187.408V186.408H414.93V187.408H415.93ZM415.93 196.176H414.93V197.176H415.93V196.176ZM432.791 185.165C434.76 185.762 436.145 186.667 437.042 187.828C437.936 188.983 438.418 190.483 438.418 192.4H440.418C440.418 190.136 439.843 188.179 438.625 186.604C437.41 185.034 435.627 183.934 433.372 183.251L432.791 185.165ZM438.418 192.4C438.418 195.181 437.396 197.234 435.376 198.693L436.547 200.315C439.135 198.446 440.418 195.763 440.418 192.4H438.418ZM435.376 198.693C433.316 200.181 430.149 201 425.722 201V203C430.34 203 433.999 202.155 436.547 200.315L435.376 198.693ZM425.722 201H408.314V203H425.722V201ZM409.314 202V167.824H407.314V202H409.314ZM408.314 168.824H425.018V166.824H408.314V168.824ZM425.018 168.824C429.094 168.824 432.14 169.576 434.262 170.965L435.357 169.291C432.786 167.608 429.304 166.824 425.018 166.824V168.824ZM434.262 170.965C436.325 172.315 437.33 174.176 437.33 176.656H439.33C439.33 173.504 437.987 171.013 435.357 169.291L434.262 170.965ZM437.33 176.656C437.33 178.215 436.915 179.518 436.115 180.609L437.728 181.791C438.805 180.322 439.33 178.595 439.33 176.656H437.33ZM436.102 180.627C435.328 181.733 434.205 182.627 432.682 183.291L433.481 185.125C435.286 184.338 436.723 183.227 437.741 181.773L436.102 180.627ZM415.93 183.096H424.314V181.096H415.93V183.096ZM424.314 183.096C426.467 183.096 428.26 182.73 429.538 181.847C430.883 180.918 431.522 179.514 431.522 177.808H429.522C429.522 178.961 429.125 179.701 428.401 180.201C427.61 180.748 426.299 181.096 424.314 181.096V183.096ZM431.522 177.808C431.522 176.132 430.873 174.76 429.526 173.857C428.25 173.002 426.463 172.648 424.314 172.648V174.648C426.303 174.648 427.619 174.987 428.413 175.519C429.135 176.003 429.522 176.71 429.522 177.808H431.522ZM424.314 172.648H415.93V174.648H424.314V172.648ZM414.93 173.648V182.096H416.93V173.648H414.93ZM425.082 197.176C427.355 197.176 429.234 196.812 430.571 195.942C431.982 195.024 432.674 193.619 432.674 191.888H430.674C430.674 193.015 430.266 193.755 429.48 194.266C428.62 194.825 427.202 195.176 425.082 195.176V197.176ZM432.674 191.888C432.674 190.141 432.057 188.694 430.716 187.744L429.559 189.376C430.266 189.877 430.674 190.649 430.674 191.888H432.674ZM430.738 187.76C429.456 186.799 427.593 186.408 425.338 186.408V188.408C427.434 188.408 428.771 188.785 429.538 189.36L430.738 187.76ZM425.338 186.408H415.93V188.408H425.338V186.408ZM414.93 187.408V196.176H416.93V187.408H414.93ZM415.93 197.176H425.082V195.176H415.93V197.176ZM473.347 191.952L474.106 191.301L473.403 190.481L472.639 191.245L473.347 191.952ZM477.571 196.88L478.346 197.511L478.873 196.863L478.33 196.229L477.571 196.88ZM471.811 201.04L471.439 200.112L471.439 200.112L471.811 201.04ZM453.955 200.208L453.491 201.094L453.491 201.094L453.955 200.208ZM447.299 194L446.43 194.496L446.435 194.504L446.44 194.512L447.299 194ZM447.235 175.952L446.366 175.456L446.364 175.46L447.235 175.952ZM453.507 169.68L453.021 168.806L453.015 168.809L453.507 169.68ZM471.299 169.552L470.823 170.432L470.831 170.436L470.84 170.441L471.299 169.552ZM477.571 175.504L476.709 176.012L476.713 176.018L477.571 175.504ZM479.875 184.528L480.066 185.509L480.875 185.351V184.528H479.875ZM453.699 189.648L453.507 188.667L452.308 188.901L452.774 190.03L453.699 189.648ZM457.603 194.128L458.099 193.26L458.099 193.26L457.603 194.128ZM455.427 176.72L454.703 176.029L454.695 176.038L455.427 176.72ZM452.739 184.528H451.739V185.738L452.927 185.51L452.739 184.528ZM472.067 180.816L472.255 181.798L473.308 181.596L473.033 180.56L472.067 180.816ZM468.675 175.76L468.065 176.553L468.075 176.56L468.675 175.76ZM464.067 196.664C468.026 196.664 471.379 195.334 474.054 192.659L472.639 191.245C470.365 193.52 467.531 194.664 464.067 194.664V196.664ZM472.587 192.603L476.811 197.531L478.33 196.229L474.106 191.301L472.587 192.603ZM476.795 196.249C475.416 197.943 473.639 199.232 471.439 200.112L472.182 201.968C474.675 200.971 476.738 199.487 478.346 197.511L476.795 196.249ZM471.439 200.112C469.228 200.996 466.712 201.448 463.875 201.448V203.448C466.925 203.448 469.699 202.962 472.182 201.968L471.439 200.112ZM463.875 201.448C460.255 201.448 457.111 200.729 454.418 199.322L453.491 201.094C456.515 202.674 459.985 203.448 463.875 203.448V201.448ZM454.418 199.322C451.715 197.91 449.637 195.966 448.157 193.488L446.44 194.512C448.118 197.324 450.477 199.52 453.491 201.094L454.418 199.322ZM448.167 193.504C446.725 190.98 445.995 188.125 445.995 184.912H443.995C443.995 188.441 444.8 191.644 446.43 194.496L448.167 193.504ZM445.995 184.912C445.995 181.739 446.705 178.925 448.105 176.444L446.364 175.46C444.778 178.27 443.995 181.429 443.995 184.912H445.995ZM448.103 176.448C449.551 173.914 451.513 171.954 453.998 170.551L453.015 168.809C450.209 170.393 447.99 172.614 446.366 175.456L448.103 176.448ZM453.992 170.554C456.518 169.151 459.377 168.44 462.595 168.44V166.44C459.071 166.44 455.871 167.222 453.021 168.806L453.992 170.554ZM462.595 168.44C465.642 168.44 468.378 169.109 470.823 170.432L471.774 168.672C469.014 167.179 465.947 166.44 462.595 166.44V168.44ZM470.84 170.441C473.315 171.718 475.267 173.569 476.709 176.012L478.432 174.996C476.802 172.234 474.572 170.116 471.757 168.663L470.84 170.441ZM476.713 176.018C478.142 178.4 478.875 181.224 478.875 184.528H480.875C480.875 180.92 480.071 177.728 478.428 174.99L476.713 176.018ZM479.683 183.547L453.507 188.667L453.89 190.629L480.066 185.509L479.683 183.547ZM452.774 190.03C453.667 192.191 455.116 193.859 457.106 194.996L458.099 193.26C456.505 192.349 455.351 191.03 454.623 189.266L452.774 190.03ZM457.106 194.996C459.079 196.124 461.413 196.664 464.067 196.664V194.664C461.685 194.664 459.71 194.18 458.099 193.26L457.106 194.996ZM462.595 172.84C459.41 172.84 456.748 173.889 454.704 176.029L456.149 177.411C457.774 175.711 459.891 174.84 462.595 174.84V172.84ZM454.695 176.038C452.692 178.184 451.739 181.03 451.739 184.464H453.739C453.739 181.412 454.577 179.096 456.158 177.402L454.695 176.038ZM451.739 184.464V184.528H453.739V184.464H451.739ZM452.927 185.51L472.255 181.798L471.878 179.834L452.55 183.546L452.927 185.51ZM473.033 180.56C472.422 178.255 471.164 176.377 469.275 174.96L468.075 176.56C469.599 177.703 470.602 179.196 471.1 181.072L473.033 180.56ZM469.284 174.967C467.422 173.535 465.172 172.84 462.595 172.84V174.84C464.795 174.84 466.599 175.425 468.065 176.553L469.284 174.967ZM518.227 167.824H519.227V166.824H518.227V167.824ZM518.227 202V203H519.227V202H518.227ZM510.227 202H509.227V203H510.227V202ZM510.227 174.608H511.227V173.608H510.227V174.608ZM497.427 174.608V173.608H496.473L496.428 174.561L497.427 174.608ZM497.107 181.392L496.108 181.345L496.108 181.345L497.107 181.392ZM495.827 192.784L494.848 192.58L494.846 192.591L495.827 192.784ZM492.691 200.016L491.923 199.376L491.921 199.378L492.691 200.016ZM482.259 201.936L481.261 201.879L481.214 202.691L482 202.902L482.259 201.936ZM482.643 195.216L482.853 194.238L481.711 193.994L481.645 195.159L482.643 195.216ZM487.827 193.488L488.672 194.023L488.676 194.017L488.68 194.011L487.827 193.488ZM489.363 188.816L488.373 188.678L488.371 188.688L488.37 188.698L489.363 188.816ZM490.003 181.008L491.002 181.059L491.002 181.052L490.003 181.008ZM490.579 167.824V166.824H489.622L489.58 167.78L490.579 167.824ZM517.227 167.824V202H519.227V167.824H517.227ZM518.227 201H510.227V203H518.227V201ZM511.227 202V174.608H509.227V202H511.227ZM510.227 173.608H497.427V175.608H510.227V173.608ZM496.428 174.561L496.108 181.345L498.106 181.439L498.426 174.655L496.428 174.561ZM496.108 181.345C495.896 185.836 495.474 189.577 494.848 192.58L496.806 192.988C497.46 189.847 497.891 185.994 498.106 181.439L496.108 181.345ZM494.846 192.591C494.271 195.507 493.28 197.748 491.923 199.376L493.459 200.656C495.089 198.7 496.188 196.12 496.808 192.977L494.846 192.591ZM491.921 199.378C490.686 200.867 488.98 201.64 486.675 201.64V203.64C489.49 203.64 491.795 202.663 493.461 200.654L491.921 199.378ZM486.675 201.64C485.6 201.64 484.222 201.427 482.518 200.97L482 202.902C483.795 203.383 485.36 203.64 486.675 203.64V201.64ZM483.257 201.993L483.641 195.273L481.645 195.159L481.261 201.879L483.257 201.993ZM482.433 196.194C483.073 196.331 483.659 196.408 484.179 196.408V194.408C483.846 194.408 483.408 194.357 482.853 194.238L482.433 196.194ZM484.179 196.408C486.114 196.408 487.663 195.616 488.672 194.023L486.982 192.953C486.37 193.92 485.487 194.408 484.179 194.408V196.408ZM488.68 194.011C489.577 192.546 490.128 190.846 490.356 188.934L488.37 188.698C488.171 190.37 487.698 191.784 486.974 192.965L488.68 194.011ZM490.353 188.954C490.615 187.076 490.831 184.439 491.002 181.059L489.004 180.957C488.834 184.318 488.623 186.887 488.373 188.678L490.353 188.954ZM491.002 181.052L491.578 167.868L489.58 167.78L489.004 180.964L491.002 181.052ZM490.579 168.824H518.227V166.824H490.579V168.824Z" fill="white" mask="url(#path-6-outside-1_17010_192207)"/>
</g>
<defs>
<clipPath id="clip0_17010_192207">
<rect width="600" height="600" rx="300" fill="white"/>
</clipPath>
</defs>
</svg>
