<svg width="92" height="100" viewBox="0 0 92 100" fill="none" xmlns="http://www.w3.org/2000/svg">
<path fill-rule="evenodd" clip-rule="evenodd" d="M15.3844 17.9405L1.34351 27.4086C0.980102 27.6509 0.764648 28.0593 0.764648 28.4991V45.6945C0.764648 46.417 1.3526 47.005 2.07942 47.005C2.33965 47.005 2.59556 46.9286 2.81078 46.7805L16.8517 37.3123C17.2153 37.07 17.4306 36.6616 17.4306 36.2218V19.0264C17.4306 18.3039 16.8428 17.7161 16.1158 17.7161C15.8556 17.7161 15.5999 17.7923 15.3844 17.9405ZM22.4833 13.848V74.445C22.4833 75.1675 23.0712 75.7552 23.7937 75.7552C24.0585 75.7552 24.3096 75.6791 24.5296 75.5309L43.1162 62.9977C43.4751 62.7509 43.6951 62.3427 43.6951 61.9075V1.31477C43.6951 0.587956 43.1072 0 42.3803 0C42.1201 0 41.8642 0.0763627 41.6444 0.224317L23.0621 12.762C22.6987 13.0043 22.4833 13.4127 22.4833 13.848ZM48.7433 13.848V74.445C48.7433 75.1675 49.3312 75.7552 50.0581 75.7552C50.3183 75.7552 50.5742 75.6791 50.7896 75.5309L69.376 62.9977C69.7396 62.7509 69.9551 62.3427 69.9551 61.9075V1.31477C69.9551 0.587956 69.3671 0 68.6401 0C68.3799 0 68.1242 0.0763627 67.9087 0.224317L49.3221 12.762C48.9587 13.0043 48.7433 13.4127 48.7433 13.848ZM89.6231 17.9405L75.5867 27.4086C75.2231 27.6509 75.0078 28.0593 75.0078 28.4991V45.6945C75.0078 46.417 75.5956 47.005 76.3181 47.005C76.5828 47.005 76.8385 46.9286 77.054 46.7805L91.0949 37.3123C91.454 37.07 91.6737 36.6616 91.6737 36.2218V19.0264C91.6737 18.3039 91.0858 17.7161 90.359 17.7161C90.0987 17.7161 89.8428 17.7923 89.6231 17.9405Z" fill="#B5C5FC"/>
<path fill-rule="evenodd" clip-rule="evenodd" d="M0.764648 88.8636H2.94578C4.34647 88.8636 5.49147 90.0084 5.49147 91.4084V99.7727H2.58215V91.4084H0.764648V88.8636ZM80.401 88.8636V91.4084H84.5826V99.7727H87.4919V91.4084C87.4919 90.0084 86.3462 88.8636 84.9462 88.8636H80.401ZM62.5828 88.8636H62.9467C64.3465 88.8636 65.4915 90.0084 65.4915 91.4084V99.7727H62.5828V88.8636ZM48.7644 93.1359C48.7644 95.4859 46.8419 97.4084 44.4919 97.4084H40.7646V99.7727H37.8553V88.8636H44.4919C46.8419 88.8636 48.7644 90.7861 48.7644 93.1359ZM61.1283 93.1359C61.1283 94.7136 60.2608 96.0991 58.9803 96.8391L60.674 99.7727H57.3146L55.9499 97.4084H53.1285V99.7727H50.2192V88.8636H56.8558C59.2058 88.8636 61.1283 90.7861 61.1283 93.1359ZM58.219 93.1359C58.219 94.0859 57.4421 94.8636 56.4921 94.8636H53.1285V91.4084H56.4921C57.4421 91.4084 58.219 92.1859 58.219 93.1359ZM45.8551 93.1359C45.8551 94.0859 45.0783 94.8636 44.1283 94.8636H40.7646V91.4084H44.1283C45.0783 91.4084 45.8551 92.1859 45.8551 93.1359ZM76.0369 99.7727L70.5828 93.2573V99.7727H67.6735V88.8636H70.5828L76.0369 95.3782V88.8636H78.9462V99.7727H76.0369ZM91.6737 88.8636H87.4919C87.4919 90.2634 88.6369 91.4084 90.0376 91.4084H91.6737V88.8636ZM18.219 88.8636V91.4084H14.0371V99.7727H11.1278V91.4084C11.1278 90.0084 12.2737 88.8636 13.6735 88.8636H18.219ZM6.94601 88.8636H11.1278C11.1278 90.2634 9.98306 91.4084 8.58215 91.4084H6.94601V88.8636ZM35.8035 90.3604L34.4224 92.4759C33.2676 91.6275 31.8597 91.2027 30.1994 91.2027C28.7078 91.2027 27.9617 91.4964 27.9617 92.0845C27.9617 92.2936 28.0496 92.4339 28.2249 92.5057C28.3999 92.5775 28.6819 92.6393 29.0706 92.6916L32.2035 93.0443C34.7592 93.3577 36.0369 94.4748 36.0369 96.3945C36.0369 97.5834 35.5153 98.4814 34.471 99.0884C33.4267 99.6964 32.0544 100 30.3556 100C29.2135 100 28.1987 99.8598 27.3099 99.5789C26.4217 99.2977 25.5426 98.8245 24.6733 98.1582L26.0158 95.925C27.4821 96.9693 29.0124 97.4918 30.6078 97.4918C31.3865 97.4918 32.0221 97.4039 32.5151 97.227C33.0081 97.0511 33.2551 96.787 33.2551 96.4341C33.2551 96.225 33.2058 96.075 33.1087 95.9834C33.0117 95.8918 32.8008 95.8334 32.4765 95.8073L28.7787 95.3764C27.5853 95.2327 26.6812 94.9023 26.0644 94.3868C25.4483 93.8704 25.1403 93.11 25.1403 92.1043C25.1403 90.9675 25.6135 90.1054 26.5608 89.5182C27.5083 88.93 28.7206 88.6364 30.1994 88.6364C32.4567 88.6364 34.3244 89.2111 35.8035 90.3604Z" fill="#B5C5FC"/>
</svg>
