<svg width="28" height="28" viewBox="0 0 28 28" fill="none" xmlns="http://www.w3.org/2000/svg">
<path d="M6.95391 12.5937C6.15516 12.5937 5.34516 12.3012 4.72641 11.705C2.65641 9.73625 1.82391 7.5875 2.30766 5.48375C2.88141 3.00875 5.05266 1.90625 6.95391 1.90625C8.85516 1.90625 11.0377 3.02 11.6002 5.48375C12.0839 7.5875 11.2402 9.73625 9.18141 11.705C8.56266 12.3012 7.76391 12.5937 6.95391 12.5937ZM3.95016 5.86625C3.52266 7.745 4.77141 9.41 5.89641 10.4787C6.49266 11.0525 7.42641 11.0412 8.02266 10.4787C9.14766 9.41 10.3964 7.745 9.95766 5.855C9.57516 4.19 8.10141 3.59375 6.96516 3.59375C5.81766 3.59375 4.34391 4.19 3.95016 5.86625Z" fill="#F28123"/>
<path d="M7 7.47485C6.38125 7.47485 5.875 6.9686 5.875 6.34985C5.875 5.7311 6.37 5.22485 7 5.22485H7.01125C7.63 5.22485 8.13625 5.7311 8.13625 6.34985C8.13625 6.9686 7.63 7.47485 7 7.47485Z" fill="#F28123"/>
<path d="M21.6016 26.0938C20.8028 26.0938 19.9928 25.8013 19.3628 25.205C17.2816 23.2363 16.4378 21.0875 16.9328 18.9725C17.5066 16.5088 19.6891 15.395 21.6016 15.395C23.5141 15.395 25.6966 16.5088 26.2703 18.9725C26.7541 21.0763 25.9103 23.2363 23.8291 25.1938C23.2103 25.8013 22.4116 26.0938 21.6016 26.0938ZM21.6016 17.0938C20.4541 17.0938 18.9691 17.69 18.5753 19.3663C18.1366 21.245 19.3966 22.9213 20.5216 23.99C21.1178 24.5638 22.0628 24.5638 22.6703 23.99C23.7953 22.9213 25.0553 21.2563 24.6166 19.3775C24.2453 17.69 22.7603 17.0938 21.6016 17.0938Z" fill="#F28123"/>
<path d="M21.6484 20.9749C21.0297 20.9749 20.5234 20.4686 20.5234 19.8499C20.5234 19.2311 21.0184 18.7249 21.6484 18.7249H21.6597C22.2784 18.7249 22.7847 19.2311 22.7847 19.8499C22.7847 20.4686 22.2672 20.9749 21.6484 20.9749Z" fill="#F28123"/>
<path d="M14.3014 22.7188H11.2864C9.98139 22.7188 8.84514 21.9313 8.39514 20.7163C7.93389 19.5013 8.27139 18.1625 9.25014 17.2963L18.2389 9.4325C18.7789 8.96 18.7901 8.31875 18.6326 7.88C18.4639 7.44125 18.0364 6.96875 17.3164 6.96875H14.3014C13.8401 6.96875 13.4576 6.58625 13.4576 6.125C13.4576 5.66375 13.8401 5.28125 14.3014 5.28125H17.3164C18.6214 5.28125 19.7576 6.06875 20.2076 7.28375C20.6689 8.49875 20.3314 9.8375 19.3526 10.7038L10.3639 18.5675C9.82389 19.04 9.81264 19.6813 9.97014 20.12C10.1389 20.5588 10.5664 21.0313 11.2864 21.0313H14.3014C14.7626 21.0313 15.1451 21.4138 15.1451 21.875C15.1451 22.3363 14.7626 22.7188 14.3014 22.7188Z" fill="#F28123"/>
<path d="M14.3014 22.7188H11.2864C9.98139 22.7188 8.84514 21.9313 8.39514 20.7163C7.93389 19.5013 8.27139 18.1625 9.25014 17.2963L18.2389 9.4325C18.7789 8.96 18.7901 8.31875 18.6326 7.88C18.4639 7.44125 18.0364 6.96875 17.3164 6.96875H14.3014C13.8401 6.96875 13.4576 6.58625 13.4576 6.125C13.4576 5.66375 13.8401 5.28125 14.3014 5.28125H17.3164C18.6214 5.28125 19.7576 6.06875 20.2076 7.28375C20.6689 8.49875 20.3314 9.8375 19.3526 10.7038L10.3639 18.5675C9.82389 19.04 9.81264 19.6813 9.97014 20.12C10.1389 20.5588 10.5664 21.0313 11.2864 21.0313H14.3014C14.7626 21.0313 15.1451 21.4138 15.1451 21.875C15.1451 22.3363 14.7626 22.7188 14.3014 22.7188Z" fill="#F28123"/>
</svg>
