<svg width="40" height="40" viewBox="0 0 40 40" fill="none" xmlns="http://www.w3.org/2000/svg">
<path fill-rule="evenodd" clip-rule="evenodd" d="M3.63623 6.90896C3.63623 6.04098 3.98103 5.20855 4.59479 4.59479C5.20855 3.98103 6.04098 3.63623 6.90896 3.63623H15.6362C16.5042 3.63623 17.3366 3.98103 17.9504 4.59479C18.5642 5.20855 18.909 6.04098 18.909 6.90896V15.6362C18.909 16.5042 18.5642 17.3366 17.9504 17.9504C17.3366 18.5642 16.5042 18.909 15.6362 18.909H6.90896C6.04098 18.909 5.20855 18.5642 4.59479 17.9504C3.98103 17.3366 3.63623 16.5042 3.63623 15.6362V6.90896ZM6.90896 5.81805C6.61963 5.81805 6.34215 5.93298 6.13757 6.13757C5.93298 6.34215 5.81805 6.61963 5.81805 6.90896V15.6362C5.81805 15.9256 5.93298 16.203 6.13757 16.4076C6.34215 16.6122 6.61963 16.7271 6.90896 16.7271H15.6362C15.9256 16.7271 16.203 16.6122 16.4076 16.4076C16.6122 16.203 16.7271 15.9256 16.7271 15.6362V6.90896C16.7271 6.61963 16.6122 6.34215 16.4076 6.13757C16.203 5.93298 15.9256 5.81805 15.6362 5.81805H6.90896ZM21.0908 6.90896C21.0908 6.04098 21.4356 5.20855 22.0493 4.59479C22.6631 3.98103 23.4955 3.63623 24.3635 3.63623H33.0908C33.9588 3.63623 34.7912 3.98103 35.4049 4.59479C36.0187 5.20855 36.3635 6.04098 36.3635 6.90896V15.6362C36.3635 16.5042 36.0187 17.3366 35.4049 17.9504C34.7912 18.5642 33.9588 18.909 33.0908 18.909H24.3635C23.4955 18.909 22.6631 18.5642 22.0493 17.9504C21.4356 17.3366 21.0908 16.5042 21.0908 15.6362V6.90896ZM24.3635 5.81805C24.0742 5.81805 23.7967 5.93298 23.5921 6.13757C23.3875 6.34215 23.2726 6.61963 23.2726 6.90896V15.6362C23.2726 15.9256 23.3875 16.203 23.5921 16.4076C23.7967 16.6122 24.0742 16.7271 24.3635 16.7271H33.0908C33.3801 16.7271 33.6576 16.6122 33.8622 16.4076C34.0668 16.203 34.1817 15.9256 34.1817 15.6362V6.90896C34.1817 6.61963 34.0668 6.34215 33.8622 6.13757C33.6576 5.93298 33.3801 5.81805 33.0908 5.81805H24.3635ZM12.3635 12.3635H10.1817V10.1817H12.3635V12.3635ZM29.8181 12.3635H27.6362V10.1817H29.8181V12.3635ZM3.63623 24.3635C3.63623 23.4955 3.98103 22.6631 4.59479 22.0493C5.20855 21.4356 6.04098 21.0908 6.90896 21.0908H15.6362C16.5042 21.0908 17.3366 21.4356 17.9504 22.0493C18.5642 22.6631 18.909 23.4955 18.909 24.3635V33.0908C18.909 33.9588 18.5642 34.7912 17.9504 35.4049C17.3366 36.0187 16.5042 36.3635 15.6362 36.3635H6.90896C6.04098 36.3635 5.20855 36.0187 4.59479 35.4049C3.98103 34.7912 3.63623 33.9588 3.63623 33.0908L3.63623 24.3635ZM6.90896 23.2726C6.61963 23.2726 6.34215 23.3875 6.13757 23.5921C5.93298 23.7967 5.81805 24.0742 5.81805 24.3635V33.0908C5.81805 33.3801 5.93298 33.6576 6.13757 33.8622C6.34215 34.0668 6.61963 34.1817 6.90896 34.1817H15.6362C15.9256 34.1817 16.203 34.0668 16.4076 33.8622C16.6122 33.6576 16.7271 33.3801 16.7271 33.0908V24.3635C16.7271 24.0742 16.6122 23.7967 16.4076 23.5921C16.203 23.3875 15.9256 23.2726 15.6362 23.2726H6.90896ZM21.0908 21.0908H29.8181V23.2726H23.2726V29.8181H21.0908V21.0908ZM36.3635 23.2726H34.1817V21.0908H36.3635V23.2726ZM12.3635 29.8181H10.1817V27.6362H12.3635V29.8181ZM34.1817 29.8181H27.6362V27.6362H36.3635V36.3635H34.1817V29.8181ZM21.0908 34.1817H29.8181V36.3635H21.0908V34.1817Z" fill="#1F271B"/>
</svg>
