<svg width="22" height="22" viewBox="0 0 22 22" fill="none" xmlns="http://www.w3.org/2000/svg">
<path d="M18.4029 14.896H15.2861C15.0709 14.896 14.8965 15.0704 14.8965 15.2856V18.4025C14.8965 18.6176 15.0709 18.7921 15.2861 18.7921H18.4029C18.6181 18.7921 18.7925 18.6176 18.7925 18.4025V15.2856C18.7925 15.0704 18.6181 14.896 18.4029 14.896Z" fill="#1F271B"/>
<path d="M14.5065 11.7792H12.1689C11.9537 11.7792 11.7793 11.9536 11.7793 12.1688V14.5064C11.7793 14.7216 11.9537 14.896 12.1689 14.896H14.5065C14.7217 14.896 14.8961 14.7216 14.8961 14.5064V12.1688C14.8961 11.9536 14.7217 11.7792 14.5065 11.7792Z" fill="#1F271B"/>
<path d="M21.5202 18.7916H19.1826C18.9674 18.7916 18.793 18.9661 18.793 19.1812V21.5189C18.793 21.734 18.9674 21.9085 19.1826 21.9085H21.5202C21.7354 21.9085 21.9098 21.734 21.9098 21.5189V19.1812C21.9098 18.9661 21.7354 18.7916 21.5202 18.7916Z" fill="#1F271B"/>
<path d="M21.5203 11.7792H19.9619C19.7467 11.7792 19.5723 11.9536 19.5723 12.1688V13.7272C19.5723 13.9424 19.7467 14.1168 19.9619 14.1168H21.5203C21.7355 14.1168 21.9099 13.9424 21.9099 13.7272V12.1688C21.9099 11.9536 21.7355 11.7792 21.5203 11.7792Z" fill="#1F271B"/>
<path d="M13.7273 19.5717H12.1689C11.9537 19.5717 11.7793 19.7461 11.7793 19.9613V21.5197C11.7793 21.7349 11.9537 21.9093 12.1689 21.9093H13.7273C13.9425 21.9093 14.1169 21.7349 14.1169 21.5197V19.9613C14.1169 19.7461 13.9425 19.5717 13.7273 19.5717Z" fill="#1F271B"/>
<path d="M20.3506 0.0909424H13.3377C12.9244 0.0909424 12.528 0.255133 12.2357 0.547394C11.9435 0.839656 11.7793 1.23605 11.7793 1.64937V8.66228C11.7793 9.0756 11.9435 9.47199 12.2357 9.76425C12.528 10.0565 12.9244 10.2207 13.3377 10.2207H20.3506C20.764 10.2207 21.1603 10.0565 21.4526 9.76425C21.7449 9.47199 21.9091 9.0756 21.9091 8.66228V1.64937C21.9091 1.23605 21.7449 0.839656 21.4526 0.547394C21.1603 0.255133 20.764 0.0909424 20.3506 0.0909424ZM18.7922 6.71425C18.7922 6.81758 18.7512 6.91668 18.6781 6.98974C18.605 7.06281 18.5059 7.10385 18.4026 7.10385H15.2858C15.1824 7.10385 15.0833 7.06281 15.0103 6.98974C14.9372 6.91668 14.8961 6.81758 14.8961 6.71425V3.5974C14.8961 3.49407 14.9372 3.39497 15.0103 3.3219C15.0833 3.24884 15.1824 3.20779 15.2858 3.20779H18.4026C18.5059 3.20779 18.605 3.24884 18.6781 3.3219C18.7512 3.39497 18.7922 3.49407 18.7922 3.5974V6.71425Z" fill="#1F271B"/>
<path d="M8.66313 0.0909424H1.65022C1.2369 0.0909424 0.84051 0.255133 0.548249 0.547394C0.255987 0.839656 0.0917969 1.23605 0.0917969 1.64937V8.66228C0.0917969 9.0756 0.255987 9.47199 0.548249 9.76425C0.84051 10.0565 1.2369 10.2207 1.65022 10.2207H8.66313C9.07645 10.2207 9.47284 10.0565 9.7651 9.76425C10.0574 9.47199 10.2216 9.0756 10.2216 8.66228V1.64937C10.2216 1.23605 10.0574 0.839656 9.7651 0.547394C9.47284 0.255133 9.07645 0.0909424 8.66313 0.0909424ZM7.10471 6.71425C7.10471 6.81758 7.06366 6.91668 6.99059 6.98974C6.91753 7.06281 6.81843 7.10385 6.7151 7.10385H3.59825C3.49492 7.10385 3.39582 7.06281 3.32276 6.98974C3.24969 6.91668 3.20865 6.81758 3.20865 6.71425V3.5974C3.20865 3.49407 3.24969 3.39497 3.32276 3.3219C3.39582 3.24884 3.49492 3.20779 3.59825 3.20779H6.7151C6.81843 3.20779 6.91753 3.24884 6.99059 3.3219C7.06366 3.39497 7.10471 3.49407 7.10471 3.5974V6.71425Z" fill="#1F271B"/>
<path d="M8.66313 11.7792H1.65022C1.2369 11.7792 0.84051 11.9434 0.548249 12.2356C0.255987 12.5279 0.0917969 12.9243 0.0917969 13.3376V20.3505C0.0917969 20.7638 0.255987 21.1602 0.548249 21.4525C0.84051 21.7447 1.2369 21.9089 1.65022 21.9089H8.66313C9.07645 21.9089 9.47284 21.7447 9.7651 21.4525C10.0574 21.1602 10.2216 20.7638 10.2216 20.3505V13.3376C10.2216 12.9243 10.0574 12.5279 9.7651 12.2356C9.47284 11.9434 9.07645 11.7792 8.66313 11.7792ZM7.10471 18.4025C7.10471 18.5058 7.06366 18.6049 6.99059 18.678C6.91753 18.751 6.81843 18.7921 6.7151 18.7921H3.59825C3.49492 18.7921 3.39582 18.751 3.32276 18.678C3.24969 18.6049 3.20865 18.5058 3.20865 18.4025V15.2856C3.20865 15.1823 3.24969 15.0832 3.32276 15.0101C3.39582 14.9371 3.49492 14.896 3.59825 14.896H6.7151C6.81843 14.896 6.91753 14.9371 6.99059 15.0101C7.06366 15.0832 7.10471 15.1823 7.10471 15.2856V18.4025Z" fill="#1F271B"/>
</svg>
