<svg width="40" height="40" viewBox="0 0 40 40" fill="none" xmlns="http://www.w3.org/2000/svg">
<path fill-rule="evenodd" clip-rule="evenodd" d="M3.63623 6.90945C3.63623 6.04146 3.98103 5.20903 4.59479 4.59528C5.20855 3.98152 6.04098 3.63672 6.90896 3.63672H15.6362C16.5042 3.63672 17.3366 3.98152 17.9504 4.59528C18.5642 5.20903 18.909 6.04146 18.909 6.90945V15.6367C18.909 16.5047 18.5642 17.3371 17.9504 17.9509C17.3366 18.5646 16.5042 18.9094 15.6362 18.9094H6.90896C6.04098 18.9094 5.20855 18.5646 4.59479 17.9509C3.98103 17.3371 3.63623 16.5047 3.63623 15.6367V6.90945ZM6.90896 5.81854C6.61963 5.81854 6.34215 5.93347 6.13757 6.13806C5.93298 6.34264 5.81805 6.62012 5.81805 6.90945V15.6367C5.81805 15.926 5.93298 16.2035 6.13757 16.4081C6.34215 16.6127 6.61963 16.7276 6.90896 16.7276H15.6362C15.9256 16.7276 16.203 16.6127 16.4076 16.4081C16.6122 16.2035 16.7271 15.926 16.7271 15.6367V6.90945C16.7271 6.62012 16.6122 6.34264 16.4076 6.13806C16.203 5.93347 15.9256 5.81854 15.6362 5.81854H6.90896ZM21.0908 6.90945C21.0908 6.04146 21.4356 5.20903 22.0493 4.59528C22.6631 3.98152 23.4955 3.63672 24.3635 3.63672H33.0908C33.9588 3.63672 34.7912 3.98152 35.4049 4.59528C36.0187 5.20903 36.3635 6.04146 36.3635 6.90945V15.6367C36.3635 16.5047 36.0187 17.3371 35.4049 17.9509C34.7912 18.5646 33.9588 18.9094 33.0908 18.9094H24.3635C23.4955 18.9094 22.6631 18.5646 22.0493 17.9509C21.4356 17.3371 21.0908 16.5047 21.0908 15.6367V6.90945ZM24.3635 5.81854C24.0742 5.81854 23.7967 5.93347 23.5921 6.13806C23.3875 6.34264 23.2726 6.62012 23.2726 6.90945V15.6367C23.2726 15.926 23.3875 16.2035 23.5921 16.4081C23.7967 16.6127 24.0742 16.7276 24.3635 16.7276H33.0908C33.3801 16.7276 33.6576 16.6127 33.8622 16.4081C34.0668 16.2035 34.1817 15.926 34.1817 15.6367V6.90945C34.1817 6.62012 34.0668 6.34264 33.8622 6.13806C33.6576 5.93347 33.3801 5.81854 33.0908 5.81854H24.3635ZM12.3635 12.364H10.1817V10.1822H12.3635V12.364ZM29.8181 12.364H27.6362V10.1822H29.8181V12.364ZM3.63623 24.364C3.63623 23.496 3.98103 22.6636 4.59479 22.0498C5.20855 21.4361 6.04098 21.0913 6.90896 21.0913H15.6362C16.5042 21.0913 17.3366 21.4361 17.9504 22.0498C18.5642 22.6636 18.909 23.496 18.909 24.364V33.0913C18.909 33.9592 18.5642 34.7917 17.9504 35.4054C17.3366 36.0192 16.5042 36.364 15.6362 36.364H6.90896C6.04098 36.364 5.20855 36.0192 4.59479 35.4054C3.98103 34.7917 3.63623 33.9592 3.63623 33.0913L3.63623 24.364ZM6.90896 23.2731C6.61963 23.2731 6.34215 23.388 6.13757 23.5926C5.93298 23.7972 5.81805 24.0747 5.81805 24.364V33.0913C5.81805 33.3806 5.93298 33.6581 6.13757 33.8627C6.34215 34.0672 6.61963 34.1822 6.90896 34.1822H15.6362C15.9256 34.1822 16.203 34.0672 16.4076 33.8627C16.6122 33.6581 16.7271 33.3806 16.7271 33.0913V24.364C16.7271 24.0747 16.6122 23.7972 16.4076 23.5926C16.203 23.388 15.9256 23.2731 15.6362 23.2731H6.90896ZM21.0908 21.0913H29.8181V23.2731H23.2726V29.8185H21.0908V21.0913ZM36.3635 23.2731H34.1817V21.0913H36.3635V23.2731ZM12.3635 29.8185H10.1817V27.6367H12.3635V29.8185ZM34.1817 29.8185H27.6362V27.6367H36.3635V36.364H34.1817V29.8185ZM21.0908 34.1822H29.8181V36.364H21.0908V34.1822Z" fill="#1F271B"/>
</svg>
