<svg width="36" height="36" viewBox="0 0 36 36" fill="none" xmlns="http://www.w3.org/2000/svg">
<g clip-path="url(#clip0_2947_26525)">
<rect x="18" y="1" width="24" height="24" transform="rotate(45 18 1)" stroke="#F28123" stroke-width="2"/>
<path fill-rule="evenodd" clip-rule="evenodd" d="M13.2002 14.3996C13.2002 13.1266 13.7059 11.9057 14.6061 11.0055C15.5063 10.1053 16.7272 9.59961 18.0002 9.59961H19.4402C21.9602 9.59961 24.0002 11.6396 24.0002 14.1596V14.3996C24.0002 15.6726 23.4945 16.8935 22.5943 17.7937C21.6941 18.6939 20.4732 19.1996 19.2002 19.1996V21.5996H16.8002V16.7996H19.2002C19.8367 16.7996 20.4472 16.5468 20.8973 16.0967C21.3473 15.6466 21.6002 15.0361 21.6002 14.3996V14.1596C21.6002 13.876 21.5443 13.5951 21.4358 13.333C21.3272 13.0709 21.1681 12.8328 20.9675 12.6323C20.767 12.4317 20.5289 12.2726 20.2668 12.164C20.0047 12.0555 19.7239 11.9996 19.4402 11.9996H18.0002C17.3637 11.9996 16.7532 12.2525 16.3031 12.7026C15.8531 13.1526 15.6002 13.7631 15.6002 14.3996H13.2002ZM19.2002 23.9996V26.3996H16.8002V23.9996H19.2002Z" fill="#F28123"/>
</g>
<defs>
<clipPath id="clip0_2947_26525">
<rect width="36" height="36" fill="white"/>
</clipPath>
</defs>
</svg>
