<svg width="151" height="100" viewBox="0 0 151 100" fill="none" xmlns="http://www.w3.org/2000/svg">
<g clip-path="url(#clip0_3494_26446)">
<path fill-rule="evenodd" clip-rule="evenodd" d="M67.0579 7.94589L73.6153 21.8791L77.3129 14.3586L84.0839 32.4911L89.045 26.0541L98.8843 38.2085L101.322 32.6742L112.603 46.2616L110.771 47.7825L101.949 37.1568L99.4897 42.7404L89.091 29.8948L83.3529 37.3399L77.0136 20.3635L73.5684 27.3707L67.0305 13.4791L59.2162 29.6659L53.5379 26.2593L43.6614 42.79L41.6174 41.5688L52.7174 22.9905L58.2055 26.283L67.0579 7.94589Z" fill="black"/>
<path d="M59.3062 10.7125C59.3062 14.3287 56.3747 17.2602 52.7586 17.2602C49.1424 17.2602 46.2109 14.3287 46.2109 10.7125C46.2109 7.09638 49.1424 4.16492 52.7586 4.16492C56.3747 4.16492 59.3062 7.09638 59.3062 10.7125Z" fill="black"/>
<path d="M12.7286 57.4982V70.8316H9.64286V65.3649H3.58571V70.8316H0.5V57.4982H3.58571V62.7554H9.64286V57.4982H12.7286Z" fill="black"/>
<path d="M20.9453 68.603C21.4786 68.603 21.9485 68.5268 22.3548 68.3744C22.7739 68.2093 23.1612 67.9554 23.5167 67.6125L25.0977 69.3268C24.1327 70.4316 22.7231 70.984 20.8691 70.984C19.7136 70.984 18.6914 70.7617 17.8024 70.3173C16.9136 69.8602 16.2279 69.2316 15.7453 68.4316C15.2628 67.6316 15.0215 66.7236 15.0215 65.7078C15.0215 64.7046 15.2565 63.803 15.7262 63.003C16.2089 62.1903 16.8628 61.5617 17.6882 61.1173C18.5262 60.6602 19.466 60.4316 20.5072 60.4316C21.4851 60.4316 22.3739 60.6411 23.1739 61.0602C23.9739 61.4665 24.6089 62.0634 25.0786 62.8506C25.5612 63.6253 25.8024 64.5459 25.8024 65.6125L18.2215 67.0792C18.4374 67.5872 18.7739 67.9681 19.231 68.2221C19.7009 68.476 20.2723 68.603 20.9453 68.603ZM20.5072 62.6792C19.758 62.6792 19.1485 62.9205 18.6786 63.403C18.2089 63.8855 17.9612 64.5522 17.9358 65.403L22.9262 64.4316C22.7866 63.8982 22.5009 63.4729 22.0691 63.1554C21.6374 62.8379 21.1167 62.6792 20.5072 62.6792Z" fill="black"/>
<path d="M37.9713 60.584V70.8316H35.1332V69.6316C34.7522 70.076 34.2824 70.4125 33.7237 70.6411C33.1776 70.8697 32.5934 70.984 31.9713 70.984C30.6252 70.984 29.5522 70.5967 28.7522 69.8221C27.9649 69.0474 27.5713 67.8982 27.5713 66.3744V60.584H30.5427V65.9363C30.5427 67.5872 31.2347 68.4125 32.6189 68.4125C33.3427 68.4125 33.9205 68.184 34.3522 67.7268C34.7839 67.2569 34.9999 66.5649 34.9999 65.6506V60.584H37.9713Z" fill="black"/>
<path d="M47.3581 65.4983C47.9676 65.6887 48.4374 65.9808 48.7676 66.3744C49.1105 66.7681 49.2819 67.2379 49.2819 67.784C49.2819 68.4316 49.0596 69.003 48.6152 69.4983C48.1707 69.9808 47.5612 70.3554 46.7867 70.6221C46.012 70.8887 45.1358 71.0221 44.1581 71.0221C43.3581 71.0221 42.5707 70.9396 41.7962 70.7744C41.0215 70.6093 40.304 70.3617 39.6438 70.0316L40.4438 67.9554C41.5231 68.476 42.7168 68.7364 44.0248 68.7364C44.7231 68.7364 45.2692 68.6348 45.6628 68.4316C46.0692 68.2158 46.2724 67.9173 46.2724 67.5364C46.2724 67.2062 46.1326 66.9586 45.8533 66.7935C45.5739 66.6158 45.1676 66.5268 44.6343 66.5268H42.539V64.6792H44.3676C44.8882 64.6792 45.2882 64.5967 45.5676 64.4316C45.8469 64.2665 45.9867 64.0253 45.9867 63.7078C45.9867 63.3777 45.8088 63.1236 45.4532 62.9459C45.1105 62.7681 44.6152 62.6792 43.9676 62.6792C42.9771 62.6792 41.8977 62.9141 40.7295 63.384L40.0057 61.3268C41.4278 60.7046 42.812 60.3935 44.1581 60.3935C45.085 60.3935 45.9105 60.5078 46.6343 60.7364C47.3707 60.9649 47.9486 61.3015 48.3676 61.7459C48.7867 62.1777 48.9962 62.6855 48.9962 63.2697C48.9962 63.7522 48.8501 64.1903 48.5581 64.584C48.2659 64.9649 47.8659 65.2697 47.3581 65.4983Z" fill="black"/>
<path d="M59.2719 65.4792C60.4782 65.8855 61.0815 66.6982 61.0815 67.9173C61.0815 68.8443 60.7322 69.5617 60.0338 70.0697C59.3354 70.5776 58.2941 70.8316 56.91 70.8316H51.4434V60.584H56.6815C57.964 60.584 58.9672 60.8188 59.691 61.2887C60.4148 61.7459 60.7767 62.3935 60.7767 63.2316C60.7767 63.7396 60.6434 64.1903 60.3767 64.584C60.1226 64.9649 59.7544 65.2634 59.2719 65.4792ZM54.1672 64.7935H56.4148C57.456 64.7935 57.9767 64.4253 57.9767 63.6887C57.9767 62.9649 57.456 62.603 56.4148 62.603H54.1672V64.7935ZM56.6624 68.8125C57.7544 68.8125 58.3005 68.4379 58.3005 67.6887C58.3005 67.295 58.1735 67.0093 57.9195 66.8316C57.6655 66.6411 57.2655 66.5459 56.7195 66.5459H54.1672V68.8125H56.6624Z" fill="black"/>
<path d="M68.397 68.603C68.9303 68.603 69.4002 68.5268 69.8065 68.3744C70.2255 68.2093 70.6128 67.9554 70.9684 67.6125L72.5493 69.3268C71.5842 70.4316 70.1747 70.984 68.3208 70.984C67.1652 70.984 66.143 70.7617 65.2541 70.3173C64.3652 69.8602 63.6795 69.2316 63.197 68.4316C62.7145 67.6316 62.4731 66.7236 62.4731 65.7078C62.4731 64.7046 62.708 63.803 63.1779 63.003C63.6604 62.1903 64.3145 61.5617 65.1398 61.1173C65.9779 60.6602 66.9176 60.4316 67.9589 60.4316C68.9366 60.4316 69.8255 60.6411 70.6255 61.0602C71.4255 61.4665 72.0604 62.0634 72.5303 62.8506C73.0128 63.6253 73.2541 64.5459 73.2541 65.6125L65.6731 67.0792C65.889 67.5872 66.2255 67.9681 66.6827 68.2221C67.1525 68.476 67.724 68.603 68.397 68.603ZM67.9589 62.6792C67.2097 62.6792 66.6002 62.9205 66.1303 63.403C65.6604 63.8855 65.4128 64.5522 65.3874 65.403L70.3779 64.4316C70.2383 63.8982 69.9526 63.4729 69.5208 63.1554C69.089 62.8379 68.5684 62.6792 67.9589 62.6792Z" fill="black"/>
<path d="M85.766 60.584V69.1173C85.766 70.9967 85.277 72.3935 84.2993 73.3078C83.3214 74.2221 81.8929 74.6792 80.0136 74.6792C79.0231 74.6792 78.0833 74.5586 77.1944 74.3173C76.3056 74.076 75.569 73.7268 74.985 73.2697L76.1658 71.1363C76.5976 71.4919 77.1437 71.7712 77.8039 71.9744C78.4643 72.1903 79.1246 72.2982 79.785 72.2982C80.8136 72.2982 81.5691 72.0634 82.0517 71.5935C82.5469 71.1363 82.7945 70.4379 82.7945 69.4982V69.0602C82.0199 69.911 80.9405 70.3363 79.5563 70.3363C78.6167 70.3363 77.7532 70.1331 76.966 69.7268C76.1913 69.3078 75.5755 68.7236 75.1183 67.9744C74.6612 67.2253 74.4326 66.3617 74.4326 65.384C74.4326 64.4062 74.6612 63.5427 75.1183 62.7935C75.5755 62.0443 76.1913 61.4665 76.966 61.0602C77.7532 60.6411 78.6167 60.4316 79.5563 60.4316C81.042 60.4316 82.1723 60.9205 82.9468 61.8982V60.584H85.766ZM80.1469 67.8982C80.9342 67.8982 81.5754 67.6697 82.0706 67.2125C82.5786 66.7427 82.8326 66.1331 82.8326 65.384C82.8326 64.6348 82.5786 64.0316 82.0706 63.5744C81.5754 63.1046 80.9342 62.8697 80.1469 62.8697C79.3595 62.8697 78.7119 63.1046 78.204 63.5744C77.6961 64.0316 77.442 64.6348 77.442 65.384C77.442 66.1331 77.6961 66.7427 78.204 67.2125C78.7119 67.6697 79.3595 67.8982 80.1469 67.8982Z" fill="black"/>
<path d="M98.97 60.584V70.8316H96.1318V69.6506C95.3954 70.5396 94.3287 70.984 92.9319 70.984C91.9668 70.984 91.0906 70.7681 90.3033 70.3363C89.5287 69.9046 88.9192 69.2887 88.4748 68.4887C88.0303 67.6887 87.8081 66.7617 87.8081 65.7078C87.8081 64.6538 88.0303 63.7268 88.4748 62.9268C88.9192 62.1268 89.5287 61.511 90.3033 61.0792C91.0906 60.6474 91.9668 60.4316 92.9319 60.4316C94.2398 60.4316 95.262 60.8443 95.9986 61.6697V60.584H98.97ZM93.4462 68.5459C94.1954 68.5459 94.8176 68.2919 95.3129 67.784C95.8081 67.2634 96.0557 66.5712 96.0557 65.7078C96.0557 64.8443 95.8081 64.1586 95.3129 63.6506C94.8176 63.13 94.1954 62.8697 93.4462 62.8697C92.6843 62.8697 92.0557 63.13 91.5605 63.6506C91.0652 64.1586 90.8176 64.8443 90.8176 65.7078C90.8176 66.5712 91.0652 67.2634 91.5605 67.784C92.0557 68.2919 92.6843 68.5459 93.4462 68.5459Z" fill="black"/>
<path d="M101.778 60.584H104.73V64.584H109.188V60.584H112.159V70.8316H109.188V67.003H104.73V70.8316H101.778V60.584Z" fill="black"/>
<path d="M115.004 60.584H117.956V64.584H122.413V60.584H125.385V70.8316H122.413V67.003H117.956V70.8316H115.004V60.584Z" fill="black"/>
<path d="M138.571 60.584V70.8316H135.733V69.6506C134.998 70.5396 133.931 70.984 132.533 70.984C131.569 70.984 130.693 70.7681 129.905 70.3363C129.131 69.9046 128.521 69.2887 128.076 68.4887C127.632 67.6887 127.409 66.7617 127.409 65.7078C127.409 64.6538 127.632 63.7268 128.076 62.9268C128.521 62.1268 129.131 61.511 129.905 61.0792C130.693 60.6474 131.569 60.4316 132.533 60.4316C133.842 60.4316 134.864 60.8443 135.6 61.6697V60.584H138.571ZM133.048 68.5459C133.798 68.5459 134.419 68.2919 134.914 67.784C135.409 67.2634 135.657 66.5712 135.657 65.7078C135.657 64.8443 135.409 64.1586 134.914 63.6506C134.419 63.13 133.798 62.8697 133.048 62.8697C132.286 62.8697 131.657 63.13 131.162 63.6506C130.667 64.1586 130.419 64.8443 130.419 65.7078C130.419 66.5712 130.667 67.2634 131.162 67.784C131.657 68.2919 132.286 68.5459 133.048 68.5459Z" fill="black"/>
<path d="M150.485 60.584V70.8316H147.837V67.8982H145.647L143.704 70.8316H140.542L142.885 67.4792C142.174 67.1998 141.627 66.7998 141.247 66.2792C140.879 65.7459 140.694 65.1046 140.694 64.3554C140.694 63.1491 141.126 62.222 141.989 61.5744C142.866 60.9141 144.066 60.584 145.589 60.584H150.485ZM145.647 63.003C145.012 63.003 144.53 63.1173 144.199 63.3459C143.882 63.5744 143.723 63.9426 143.723 64.4506C143.723 64.9586 143.875 65.3331 144.18 65.5744C144.498 65.803 144.974 65.9173 145.608 65.9173H147.837V63.003H145.647Z" fill="black"/>
<path d="M45.896 81.1744C47.7626 81.1744 49.2166 81.6316 50.2579 82.5459C51.3118 83.4601 51.8388 84.7426 51.8388 86.3935C51.8388 87.9554 51.3626 89.1807 50.4102 90.0697C49.4705 90.9586 48.1499 91.403 46.4483 91.403C45.8895 91.403 45.3436 91.3459 44.8102 91.2316C44.2895 91.1173 43.7245 90.9268 43.115 90.6601V94.6411H40.0674V86.7554C40.0674 84.9649 40.5626 83.5872 41.5531 82.6221C42.5562 81.6569 44.0038 81.1744 45.896 81.1744ZM45.915 89.0792C46.8166 89.0792 47.5086 88.8506 47.9912 88.3935C48.4864 87.9363 48.7341 87.2887 48.7341 86.4506C48.7341 85.5998 48.4864 84.9396 47.9912 84.4697C47.5086 83.9998 46.8356 83.7649 45.9721 83.7649C45.0705 83.7649 44.3657 84.0253 43.8579 84.5459C43.3626 85.0665 43.115 85.7967 43.115 86.7363V88.2221C43.496 88.4887 43.9276 88.6982 44.4102 88.8506C44.9055 89.003 45.407 89.0792 45.915 89.0792Z" fill="black"/>
<path d="M58.5033 94.7935C57.4239 94.7935 56.4525 94.5712 55.589 94.1268C54.7382 93.6697 54.0715 93.0411 53.589 92.2411C53.1065 91.4411 52.8652 90.5331 52.8652 89.5173C52.8652 88.5015 53.1065 87.5935 53.589 86.7935C54.0715 85.9935 54.7382 85.3712 55.589 84.9268C56.4525 84.4697 57.4239 84.2411 58.5033 84.2411C59.5827 84.2411 60.5477 84.4697 61.3986 84.9268C62.2494 85.3712 62.9161 85.9935 63.3986 86.7935C63.8811 87.5935 64.1224 88.5015 64.1224 89.5173C64.1224 90.5331 63.8811 91.4411 63.3986 92.2411C62.9161 93.0411 62.2494 93.6697 61.3986 94.1268C60.5477 94.5712 59.5827 94.7935 58.5033 94.7935ZM58.5033 92.3554C59.2652 92.3554 59.8875 92.1015 60.37 91.5935C60.8652 91.0729 61.1129 90.3807 61.1129 89.5173C61.1129 88.6538 60.8652 87.9681 60.37 87.4602C59.8875 86.9396 59.2652 86.6792 58.5033 86.6792C57.7414 86.6792 57.1129 86.9396 56.6176 87.4602C56.1224 87.9681 55.8748 88.6538 55.8748 89.5173C55.8748 90.3807 56.1224 91.0729 56.6176 91.5935C57.1129 92.1015 57.7414 92.3554 58.5033 92.3554Z" fill="black"/>
<path d="M71.0424 94.7935C69.9503 94.7935 68.9662 94.5712 68.09 94.1268C67.2265 93.6697 66.5472 93.0411 66.0519 92.2411C65.5693 91.4411 65.3281 90.5331 65.3281 89.5173C65.3281 88.5015 65.5693 87.5935 66.0519 86.7935C66.5472 85.9935 67.2265 85.3712 68.09 84.9268C68.9662 84.4697 69.9503 84.2411 71.0424 84.2411C72.1217 84.2411 73.0615 84.4697 73.8615 84.9268C74.6741 85.3712 75.2646 86.0125 75.6329 86.8506L73.3281 88.0887C72.7948 87.1491 72.0265 86.6792 71.0234 86.6792C70.2487 86.6792 69.6074 86.9331 69.0996 87.4411C68.5916 87.9491 68.3376 88.6411 68.3376 89.5173C68.3376 90.3935 68.5916 91.0855 69.0996 91.5935C69.6074 92.1015 70.2487 92.3554 71.0234 92.3554C72.0392 92.3554 72.8074 91.8855 73.3281 90.9459L75.6329 92.203C75.2646 93.0158 74.6741 93.6506 73.8615 94.1078C73.0615 94.5649 72.1217 94.7935 71.0424 94.7935Z" fill="black"/>
<path d="M82.1845 94.7935C81.0925 94.7935 80.1083 94.5712 79.2321 94.1268C78.3687 93.6697 77.6893 93.0411 77.194 92.2411C76.7115 91.4411 76.4702 90.5331 76.4702 89.5173C76.4702 88.5015 76.7115 87.5935 77.194 86.7935C77.6893 85.9935 78.3687 85.3712 79.2321 84.9268C80.1083 84.4697 81.0925 84.2411 82.1845 84.2411C83.2639 84.2411 84.2036 84.4697 85.0036 84.9268C85.8163 85.3712 86.4068 86.0125 86.775 86.8506L84.4702 88.0887C83.9369 87.1491 83.1687 86.6792 82.1655 86.6792C81.3909 86.6792 80.7496 86.9331 80.2416 87.4411C79.7338 87.9491 79.4797 88.6411 79.4797 89.5173C79.4797 90.3935 79.7338 91.0855 80.2416 91.5935C80.7496 92.1015 81.3909 92.3554 82.1655 92.3554C83.1814 92.3554 83.9496 91.8855 84.4702 90.9459L86.775 92.203C86.4068 93.0158 85.8163 93.6506 85.0036 94.1078C84.2036 94.5649 83.2639 94.7935 82.1845 94.7935Z" fill="black"/>
<path d="M98.6949 84.3935V94.6411H95.8568V93.4411C95.4759 93.8855 95.006 94.2221 94.4473 94.4506C93.9012 94.6792 93.3172 94.7935 92.6949 94.7935C91.3488 94.7935 90.2759 94.4062 89.4759 93.6316C88.6886 92.8569 88.2949 91.7078 88.2949 90.184V84.3935H91.2663V89.7459C91.2663 91.3967 91.9584 92.2221 93.3425 92.2221C94.0663 92.2221 94.6441 91.9935 95.0759 91.5364C95.5077 91.0665 95.7235 90.3745 95.7235 89.4602V84.3935H98.6949Z" fill="black"/>
<path d="M110.632 84.3935V94.6411H107.984V91.7078H105.794L103.851 94.6411H100.689L103.032 91.2887C102.321 91.0093 101.775 90.6093 101.394 90.0887C101.026 89.5554 100.841 88.9141 100.841 88.1649C100.841 86.9586 101.273 86.0316 102.137 85.384C103.013 84.7236 104.213 84.3935 105.737 84.3935H110.632ZM105.794 86.8125C105.159 86.8125 104.676 86.9268 104.346 87.1554C104.029 87.384 103.87 87.7522 103.87 88.2602C103.87 88.7681 104.022 89.1427 104.327 89.384C104.645 89.6125 105.121 89.7268 105.756 89.7268H107.984V86.8125H105.794Z" fill="black"/>
<path d="M52.3981 47.9149L62.8775 42.8554L82.8369 51.6649L108.116 47.9149L82.8369 54.1649L62.8775 45.8316L53.9489 49.403L42.6394 45.8316L52.3981 47.9149Z" fill="black"/>
</g>
<defs>
<clipPath id="clip0_3494_26446">
<rect width="150" height="91.6667" fill="white" transform="translate(0.5 4.16492)"/>
</clipPath>
</defs>
</svg>
