<svg width="34" height="38" viewBox="0 0 34 38" fill="none" xmlns="http://www.w3.org/2000/svg">
<path d="M23.7833 9.68663L11.1517 17.0566C11.3717 17.6616 11.5 18.3216 11.5 19C11.5 19.6783 11.3717 20.3383 11.1517 20.9433L23.7833 28.3133C24.5058 27.4442 25.4787 26.8191 26.5694 26.5232C27.6601 26.2273 28.8156 26.2751 29.8782 26.6601C30.9407 27.045 31.8587 27.7483 32.5069 28.6741C33.1551 29.5999 33.5019 30.7031 33.5 31.8333C33.5 34.8766 31.0433 37.3333 28 37.3333C24.9567 37.3333 22.5 34.8766 22.5 31.8333C22.5 31.155 22.6283 30.495 22.8483 29.89L10.2167 22.52C9.49426 23.3891 8.52134 24.0142 7.43061 24.3101C6.33987 24.6059 5.18442 24.5581 4.12185 24.1732C3.05927 23.7883 2.1413 23.0849 1.49313 22.1591C0.844965 21.2333 0.498156 20.1301 0.500007 19C0.498156 17.8698 0.844965 16.7666 1.49313 15.8408C2.1413 14.915 3.05927 14.2117 4.12185 13.8267C5.18442 13.4418 6.33987 13.394 7.43061 13.6899C8.52134 13.9857 9.49426 14.6108 10.2167 15.48L22.8483 8.10996C22.6283 7.50496 22.5 6.84496 22.5 6.16663C22.5 3.12329 24.9567 0.666626 28 0.666626C31.0433 0.666626 33.5 3.12329 33.5 6.16663C33.5019 7.29678 33.1551 8.39999 32.5069 9.32579C31.8587 10.2516 30.9407 10.9549 29.8782 11.3399C28.8156 11.7248 27.6601 11.7726 26.5694 11.4767C25.4787 11.1809 24.5058 10.5557 23.7833 9.68663ZM28 35.5C30.035 35.5 31.6667 33.8683 31.6667 31.8333C31.6667 29.7983 30.035 28.1666 28 28.1666C25.965 28.1666 24.3333 29.8166 24.3333 31.8333C24.3333 33.85 25.9833 35.5 28 35.5ZM6.00001 22.6666C8.03501 22.6666 9.66667 21.035 9.66667 19C9.66667 16.965 8.03501 15.3333 6.00001 15.3333C3.96501 15.3333 2.33334 16.9833 2.33334 19C2.33334 21.0166 3.96501 22.6666 6.00001 22.6666ZM28 9.83329C30.035 9.83329 31.6667 8.20163 31.6667 6.16663C31.6667 4.13163 30.035 2.49996 28 2.49996C25.965 2.49996 24.3333 4.14996 24.3333 6.16663C24.3333 8.18329 25.9833 9.83329 28 9.83329Z" fill="#1F271B"/>
</svg>
